<svg xmlns="http://www.w3.org/2000/svg" width="50.401" height="67.247" viewBox="0 0 50.401 67.247">
  <g id="Group_1714" data-name="Group 1714" transform="translate(-242 -341.753)">
    <g id="Group_1568" data-name="Group 1568" transform="translate(242 341.753)">
      <path id="Path_983" data-name="Path 983" d="M108.381,27.776h-8.1V1.14A1.14,1.14,0,0,0,99.137,0H60.26a1.14,1.14,0,0,0-1.14,1.14V66.107a1.14,1.14,0,0,0,1.14,1.14h48.121a1.14,1.14,0,0,0,1.14-1.14V28.916A1.14,1.14,0,0,0,108.381,27.776Zm-40.906,1.14V64.967H61.4V2.28H98v25.5H68.614A1.14,1.14,0,0,0,67.475,28.916ZM87.352,64.967H77.094V54.447H87.352Zm12.538,0H89.632V54.447H99.89Zm2.245,0V53.307a1.14,1.14,0,0,0-1.14-1.14H76a1.14,1.14,0,0,0-1.14,1.14v11.66H69.754V30.056h37.487l.034,34.911Z" transform="translate(-59.12)" fill="#5e5e5e"/>
    </g>
    <g id="Group_1571" data-name="Group 1571" transform="translate(266.585 346.563)">
      <g id="Group_1570" data-name="Group 1570">
        <path id="Path_984" data-name="Path 984" d="M239.305,33.76H232.82a1.14,1.14,0,0,0-1.14,1.14v6.474a1.14,1.14,0,0,0,1.14,1.14h6.474a1.14,1.14,0,0,0,1.14-1.14V34.9A1.14,1.14,0,0,0,239.305,33.76Zm-5.346,6.474V36.04h4.194l.011,4.194Z" transform="translate(-231.68 -33.76)" fill="#5e5e5e"/>
      </g>
    </g>
    <g id="Group_1573" data-name="Group 1573" transform="translate(249.488 346.563)">
      <g id="Group_1572" data-name="Group 1572" transform="translate(0)">
        <path id="Path_985" data-name="Path 985" d="M119.294,33.76H112.82a1.14,1.14,0,0,0-1.14,1.14v6.474a1.14,1.14,0,0,0,1.14,1.14h6.474a1.14,1.14,0,0,0,1.14-1.14V34.9A1.14,1.14,0,0,0,119.294,33.76Zm-1.14,6.474H113.96V36.04h4.194Z" transform="translate(-111.68 -33.76)" fill="#5e5e5e"/>
      </g>
    </g>
    <g id="Group_1575" data-name="Group 1575" transform="translate(266.585 358.28)">
      <g id="Group_1574" data-name="Group 1574">
        <path id="Path_986" data-name="Path 986" d="M239.305,116H232.82a1.14,1.14,0,0,0-1.14,1.14v6.5a1.14,1.14,0,0,0,1.14,1.14h6.474a1.14,1.14,0,0,0,1.14-1.14v-6.5A1.14,1.14,0,0,0,239.305,116Zm-5.346,6.474V118.28h4.194l.011,4.194Z" transform="translate(-231.68 -116)" fill="#5e5e5e"/>
      </g>
    </g>
    <g id="Group_1577" data-name="Group 1577" transform="translate(249.488 358.28)">
      <g id="Group_1576" data-name="Group 1576" transform="translate(0)">
        <path id="Path_987" data-name="Path 987" d="M119.294,116H112.82a1.14,1.14,0,0,0-1.14,1.14v6.5a1.14,1.14,0,0,0,1.14,1.14h6.474a1.14,1.14,0,0,0,1.14-1.14v-6.5A1.14,1.14,0,0,0,119.294,116Zm-1.14,6.474H113.96V118.28h4.194Z" transform="translate(-111.68 -116)" fill="#5e5e5e"/>
      </g>
    </g>
  </g>
</svg>
