<svg xmlns="http://www.w3.org/2000/svg" width="188.513" height="222.124" viewBox="0 0 188.513 222.124">
  <g id="Group_1638" data-name="Group 1638" transform="translate(-82.335 -273.475)">
    <g id="Group_1635" data-name="Group 1635" transform="translate(135.345 293.77)">
      <path id="Path_997" data-name="Path 997" d="M150.7,266.876h53.326V467.091H150.7Z" transform="translate(-150.701 -266.876)" fill="#b3b3b3"/>
      <path id="Path_1031" data-name="Path 1031" d="M163.156,314.946h17.775v17.885H163.156Z" transform="translate(-145.381 -254.584)" fill="#7fa53e"/>
      <path id="Path_1032" data-name="Path 1032" d="M163.156,340.012h17.775V357.9H163.156Z" transform="translate(-145.381 -248.174)" fill="#7fa53e"/>
      <path id="Path_1033" data-name="Path 1033" d="M163.156,365.077h17.775v17.885H163.156Z" transform="translate(-145.381 -241.764)" fill="#7fa53e"/>
      <path id="Path_1034" data-name="Path 1034" d="M163.156,390.142h17.775v17.885H163.156Z" transform="translate(-145.381 -238.644)" fill="#7fa53e"/>
    </g>
    <path id="Path_998" data-name="Path 998" d="M113.335,266.876h53.326v221.9H113.335Z" transform="translate(-31 6.599)" fill="#ccc"/>
    <g id="Group_1636" data-name="Group 1636" transform="translate(151.868 309.276)">
      <path id="Path_1012" data-name="Path 1012" d="M161.6,281.871h4.444V287.4H161.6Z" transform="translate(-161.599 -281.871)" fill="#7fa53e"/>
      <path id="Path_1013" data-name="Path 1013" d="M174.054,281.871H178.5V287.4h-4.444Z" transform="translate(-156.279 -281.871)" fill="#7fa53e"/>
      <path id="Path_1014" data-name="Path 1014" d="M161.6,297.355h4.444v5.525H161.6Z" transform="translate(-161.599 -275.257)" fill="#7fa53e"/>
      <path id="Path_1015" data-name="Path 1015" d="M174.054,297.355H178.5v5.525h-4.444Z" transform="translate(-156.279 -275.257)" fill="#7fa53e"/>
      <path id="Path_1016" data-name="Path 1016" d="M161.6,312.838h4.444v5.525H161.6Z" transform="translate(-161.599 -268.643)" fill="#7fa53e"/>
      <path id="Path_1017" data-name="Path 1017" d="M174.054,312.838H178.5v5.525h-4.444Z" transform="translate(-156.279 -268.643)" fill="#7fa53e"/>
      <path id="Path_1018" data-name="Path 1018" d="M161.6,328.322h4.444v5.525H161.6Z" transform="translate(-161.599 -262.029)" fill="#7fa53e"/>
      <path id="Path_1019" data-name="Path 1019" d="M174.054,328.322H178.5v5.525h-4.444Z" transform="translate(-156.279 -262.029)" fill="#7fa53e"/>
      <path id="Path_1020" data-name="Path 1020" d="M161.6,343.805h4.444v5.525H161.6Z" transform="translate(-161.599 -255.415)" fill="#7fa53e"/>
      <path id="Path_1021" data-name="Path 1021" d="M174.054,343.805H178.5v5.525h-4.444Z" transform="translate(-156.279 -255.415)" fill="#7fa53e"/>
      <path id="Path_1022" data-name="Path 1022" d="M161.6,359.288h4.444v5.525H161.6Z" transform="translate(-161.599 -248.801)" fill="#7fa53e"/>
      <path id="Path_1023" data-name="Path 1023" d="M174.054,359.288H178.5v5.525h-4.444Z" transform="translate(-156.279 -248.801)" fill="#7fa53e"/>
      <path id="Path_1024" data-name="Path 1024" d="M161.6,374.773h4.444V380.3H161.6Z" transform="translate(-161.599 -242.186)" fill="#7fa53e"/>
      <path id="Path_1025" data-name="Path 1025" d="M174.054,374.773H178.5V380.3h-4.444Z" transform="translate(-156.279 -242.186)" fill="#7fa53e"/>
      <path id="Path_1026" data-name="Path 1026" d="M161.6,390.256h4.444v5.525H161.6Z" transform="translate(-161.599 -235.572)" fill="#7fa53e"/>
      <path id="Path_1027" data-name="Path 1027" d="M174.054,390.256H178.5v5.525h-4.444Z" transform="translate(-156.279 -235.572)" fill="#7fa53e"/>
      <path id="Path_1028" data-name="Path 1028" d="M161.6,405.74h4.444v5.525H161.6Z" transform="translate(-161.599 -228.958)" fill="#7fa53e"/>
      <path id="Path_1029" data-name="Path 1029" d="M174.054,405.74H178.5v5.525h-4.444Z" transform="translate(-156.279 -228.958)" fill="#7fa53e"/>
    </g>
    <g id="Group_1637" data-name="Group 1637" transform="translate(98.11 296.973)">
      <path id="Path_1012-2" data-name="Path 1012" d="M125.79,282.359h4.444v5.525H125.79Z" transform="translate(-125.79 -282.359)" fill="#7fa53e"/>
      <path id="Path_1013-2" data-name="Path 1013" d="M138.245,282.359h4.444v5.525h-4.444Z" transform="translate(-120.47 -282.359)" fill="#7fa53e"/>
      <path id="Path_1014-2" data-name="Path 1014" d="M125.79,297.842h4.444v5.525H125.79Z" transform="translate(-125.79 -275.745)" fill="#7fa53e"/>
      <path id="Path_1015-2" data-name="Path 1015" d="M138.245,297.842h4.444v5.525h-4.444Z" transform="translate(-120.47 -275.745)" fill="#7fa53e"/>
      <path id="Path_1016-2" data-name="Path 1016" d="M125.79,313.326h4.444v5.525H125.79Z" transform="translate(-125.79 -269.131)" fill="#7fa53e"/>
      <path id="Path_1017-2" data-name="Path 1017" d="M138.245,313.326h4.444v5.525h-4.444Z" transform="translate(-120.47 -269.131)" fill="#7fa53e"/>
      <path id="Path_1018-2" data-name="Path 1018" d="M125.79,328.809h4.444v5.525H125.79Z" transform="translate(-125.79 -262.517)" fill="#7fa53e"/>
      <path id="Path_1019-2" data-name="Path 1019" d="M138.245,328.809h4.444v5.525h-4.444Z" transform="translate(-120.47 -262.517)" fill="#7fa53e"/>
      <path id="Path_1020-2" data-name="Path 1020" d="M125.79,344.292h4.444v5.526H125.79Z" transform="translate(-125.79 -255.903)" fill="#7fa53e"/>
      <path id="Path_1021-2" data-name="Path 1021" d="M138.245,344.292h4.444v5.526h-4.444Z" transform="translate(-120.47 -255.903)" fill="#7fa53e"/>
      <path id="Path_1022-2" data-name="Path 1022" d="M125.79,359.776h4.444V365.3H125.79Z" transform="translate(-125.79 -249.289)" fill="#7fa53e"/>
      <path id="Path_1023-2" data-name="Path 1023" d="M138.245,359.776h4.444V365.3h-4.444Z" transform="translate(-120.47 -249.289)" fill="#7fa53e"/>
      <path id="Path_1024-2" data-name="Path 1024" d="M125.79,375.26h4.444v5.526H125.79Z" transform="translate(-125.79 -242.675)" fill="#7fa53e"/>
      <path id="Path_1025-2" data-name="Path 1025" d="M138.245,375.26h4.444v5.526h-4.444Z" transform="translate(-120.47 -242.675)" fill="#7fa53e"/>
      <path id="Path_1026-2" data-name="Path 1026" d="M125.79,390.744h4.444v5.525H125.79Z" transform="translate(-125.79 -236.061)" fill="#7fa53e"/>
      <path id="Path_1027-2" data-name="Path 1027" d="M138.245,390.744h4.444v5.525h-4.444Z" transform="translate(-120.47 -236.061)" fill="#7fa53e"/>
      <path id="Path_1028-2" data-name="Path 1028" d="M125.79,406.227h4.444v5.525H125.79Z" transform="translate(-125.79 -229.447)" fill="#7fa53e"/>
      <path id="Path_1029-2" data-name="Path 1029" d="M138.245,406.227h4.444v5.525h-4.444Z" transform="translate(-120.47 -229.447)" fill="#7fa53e"/>
    </g>
    <path id="Path_996" data-name="Path 996" d="M122.677,308.216h144.18V477.939H122.677V308.216Z" transform="translate(3.991 17.659)" fill="#e6e6e6"/>
    <path id="Path_999" data-name="Path 999" d="M150.7,392.887h71.1V441.77H150.7Z" transform="translate(12.012 53.828)" fill="#7fa53e"/>
    <path id="Path_1007" data-name="Path 1007" d="M150.7,330.611h26.664v26.664H150.7Z" transform="translate(13.286 27.225)" fill="#7fa53e"/>
    <path id="Path_1008" data-name="Path 1008" d="M181.839,330.611H208.5v26.664H181.839Z" transform="translate(24.357 27.225)" fill="#7fa53e"/>
    <path id="Path_1010" data-name="Path 1010" d="M150.7,361.749h26.664v26.664H150.7Z" transform="translate(13.286 40.527)" fill="#7fa53e"/>
    <path id="Path_1011" data-name="Path 1011" d="M181.839,361.749H208.5v26.664H181.839Z" transform="translate(24.357 40.527)" fill="#7fa53e"/>
    <path id="Path_1035" data-name="Path 1035" d="M175.612,392.887h35.551V441.77H175.612Z" transform="translate(21.835 53.828)" fill="#556f44"/>
  </g>
</svg>
