<svg xmlns="http://www.w3.org/2000/svg" width="33.856" height="30.774" viewBox="0 0 33.856 30.774">
  <g id="plant" transform="translate(0.15 -21.429)">
    <g id="Group_1555" data-name="Group 1555" transform="translate(0 21.579)">
      <g id="Group_1554" data-name="Group 1554">
        <path id="Path_975" data-name="Path 975" d="M13.491,24.849c-2.932-2.93-8.668-3.27-12.729-3.27A.762.762,0,0,0,0,22.341c0,4.061.338,9.8,3.27,12.729a7.1,7.1,0,0,0,5.014,1.79,7.6,7.6,0,0,0,5.206-1.792C15.674,32.885,16.075,27.431,13.491,24.849Zm-1.077,9.144c-1.63,1.629-6.157,1.908-8.065,0-2.366-2.366-2.776-7.174-2.82-10.885,3.712.044,8.519.454,10.885,2.82C14.321,27.835,14.042,32.364,12.414,33.992Z" transform="translate(0 -21.579)" fill="#fff" stroke="#fff" stroke-width="0.3"/>
      </g>
    </g>
    <g id="Group_1557" data-name="Group 1557" transform="translate(18.274 24.593)">
      <g id="Group_1556" data-name="Group 1556" transform="translate(0 0)">
        <path id="Path_976" data-name="Path 976" d="M270.382,63.776c-4.061,0-9.8.338-12.729,3.27-2.584,2.583-2.183,8.036,0,10.219a7.6,7.6,0,0,0,5.2,1.79,7.1,7.1,0,0,0,5.016-1.789c2.93-2.932,3.27-8.668,3.27-12.729A.762.762,0,0,0,270.382,63.776Zm-3.588,12.412c-1.908,1.908-6.436,1.629-8.065,0s-1.908-6.157,0-8.065c2.366-2.366,7.174-2.776,10.885-2.82C269.57,69.016,269.16,73.823,266.794,76.188Z" transform="translate(-255.862 -63.776)" fill="#fff" stroke="#fff" stroke-width="0.3"/>
      </g>
    </g>
    <g id="Group_1559" data-name="Group 1559" transform="translate(6.094 27.675)">
      <g id="Group_1558" data-name="Group 1558">
        <path id="Path_977" data-name="Path 977" d="M106.526,110.441a.823.823,0,0,0-1.074-.337,18.26,18.26,0,0,0-10.018,12.462c-1.614-10.471-6.281-13.663-8.26-15.017a4.783,4.783,0,0,1-.545-.4.762.762,0,0,0-1.077,1.077,6.129,6.129,0,0,0,.763.577c2.231,1.525,8.156,5.58,8.156,21.738a.762.762,0,0,0,1.524,0c0-6.529,1.754-15.136,10.107-19.061,0,0,.123-.059.123-.059A.706.706,0,0,0,106.526,110.441Z" transform="translate(-85.328 -106.928)" fill="#fff" stroke="#fff" stroke-width="0.3"/>
      </g>
    </g>
  </g>
</svg>
