<svg id="Group_1588" data-name="Group 1588" xmlns="http://www.w3.org/2000/svg" width="54.642" height="85.064" viewBox="0 0 54.642 85.064">
  <path id="Path_993" data-name="Path 993" d="M146.014,36.512a1.247,1.247,0,0,0-1.041-.593,28.256,28.256,0,0,0-8.214,1.422,31.575,31.575,0,0,0-15.349,10.6l-.011.014h0l0,.006c-.432.55-.824,1.094-1.177,1.615L120.1,30.835a23.529,23.529,0,0,0,2.057,3.643,7.03,7.03,0,0,0,5.488,2.834h.034a5.6,5.6,0,0,0,3.409-1.148,5.72,5.72,0,0,0,2.2-4.318,7.194,7.194,0,0,0-1.523-4.745,33.949,33.949,0,0,0-4.875-4.484,32.585,32.585,0,0,0,6.543-1.011,7.194,7.194,0,0,0,3.9-3.1,5.719,5.719,0,0,0,.57-4.814,6.142,6.142,0,0,0-5.954-3.963h-.04a7.5,7.5,0,0,0-2.367.4,33.246,33.246,0,0,0-5.879,3.207,33.1,33.1,0,0,0,1.123-6.6,7.177,7.177,0,0,0-1.743-4.717A5.72,5.72,0,0,0,118.721,0h-.032c-3.34.019-6.041,3.074-6.02,6.81a33.208,33.208,0,0,0,1.184,6.582,33.244,33.244,0,0,0-5.913-3.139,7.5,7.5,0,0,0-2.33-.374h-.041a6.148,6.148,0,0,0-5.95,4.03,5.719,5.719,0,0,0,.624,4.807,7.194,7.194,0,0,0,3.938,3.054,32.587,32.587,0,0,0,6.554.937,33.973,33.973,0,0,0-4.825,4.538,7.2,7.2,0,0,0-1.47,4.762,5.719,5.719,0,0,0,2.25,4.293,5.594,5.594,0,0,0,3.388,1.11h.034a7.025,7.025,0,0,0,5.49-2.9,23.358,23.358,0,0,0,2-3.631l.122,18.78c-.371-.538-.785-1.1-1.243-1.671l-.011-.013,0,0,0-.006A31.576,31.576,0,0,0,101,37.542a28.249,28.249,0,0,0-8.229-1.33,1.246,1.246,0,0,0-1.082,1.8,27.208,27.208,0,0,0,5.975,7.51,19.431,19.431,0,0,0,13,5.135,20.277,20.277,0,0,0,4.361-.486,26.217,26.217,0,0,1,2.739,4.514l.018,2.715H102.136a2.021,2.021,0,0,0-2.019,2.019v4a2.021,2.021,0,0,0,2.019,2.019h1.989l1.506,7.459,0,.012,2.012,9.966a2.732,2.732,0,0,0,2.67,2.185h17.092a2.732,2.732,0,0,0,2.67-2.185l3.52-17.437h1.989a2.021,2.021,0,0,0,2.019-2.019v-4a2.021,2.021,0,0,0-2.019-2.019H120.268l-.018-2.851a26.491,26.491,0,0,1,2.633-4.422,20.339,20.339,0,0,0,4.151.439,19.409,19.409,0,0,0,13.151-5.282,27.206,27.206,0,0,0,5.89-7.576A1.246,1.246,0,0,0,146.014,36.512ZM99.366,43.7A25.442,25.442,0,0,1,95.1,38.847a29.422,29.422,0,0,1,5.265,1.108,28.619,28.619,0,0,1,12.817,8.025A16.573,16.573,0,0,1,99.366,43.7Zm30.975-31.209a5.008,5.008,0,0,1,1.581-.269h.026a3.664,3.664,0,0,1,3.593,2.27,3.265,3.265,0,0,1-.353,2.741,4.7,4.7,0,0,1-2.56,2.01,34.183,34.183,0,0,1-6.779.945c0-.021,0-.042,0-.062a7.118,7.118,0,0,0-.059-.873l2.579-.856a1.246,1.246,0,0,0-.785-2.366l-2.548.845a7.022,7.022,0,0,0-.66-1.026A34.293,34.293,0,0,1,130.342,12.493ZM124.526,29.3a1.247,1.247,0,0,0,1-1.984l-1.659-2.259a7.078,7.078,0,0,0,.808-1,35.547,35.547,0,0,1,5.106,4.562,4.7,4.7,0,0,1,1.011,3.093,3.265,3.265,0,0,1-1.23,2.475,3.125,3.125,0,0,1-1.905.632h-.02a4.528,4.528,0,0,1-3.51-1.859,34.22,34.22,0,0,1-3.078-6.112,7.03,7.03,0,0,0,.8-.328l1.669,2.272A1.244,1.244,0,0,0,124.526,29.3ZM118.7,2.493h.017a3.264,3.264,0,0,1,2.45,1.179,4.687,4.687,0,0,1,1.122,3.084,34.207,34.207,0,0,1-1.242,6.726,7,7,0,0,0-1.018-.259L120,10.575a1.247,1.247,0,0,0-1.246-1.23h-.017a1.246,1.246,0,0,0-1.23,1.263l.034,2.62a7.029,7.029,0,0,0-1.073.282,34.271,34.271,0,0,1-1.3-6.713C115.15,4.434,116.738,2.5,118.7,2.493ZM104.956,19.4a4.7,4.7,0,0,1-2.582-1.981,3.264,3.264,0,0,1-.383-2.737,3.67,3.67,0,0,1,3.594-2.311h.027a5.009,5.009,0,0,1,1.557.252,34.315,34.315,0,0,1,6,3.292,7.013,7.013,0,0,0-.647,1.031l-2.552-.815a1.246,1.246,0,1,0-.758,2.375l2.582.824a7.1,7.1,0,0,0-.049.876h0c0,.021,0,.041,0,.062A34.177,34.177,0,0,1,104.956,19.4Zm8.654,13.619a4.524,4.524,0,0,1-3.509,1.9,3.1,3.1,0,0,1-1.912-.611,3.265,3.265,0,0,1-1.258-2.461,4.7,4.7,0,0,1,.976-3.1,35.553,35.553,0,0,1,5.054-4.619,7.092,7.092,0,0,0,.824,1l-1.63,2.273a1.247,1.247,0,0,0,2.026,1.453l1.641-2.288a7.037,7.037,0,0,0,.8.317A34.207,34.207,0,0,1,113.609,33.019Zm.929-11.221a1.251,1.251,0,0,0-.13-.25,1.24,1.24,0,0,0-.036-.281,4.56,4.56,0,0,1,1.509-4.606,1.244,1.244,0,0,0,.2-.217,1.251,1.251,0,0,0,.268-.126,4.545,4.545,0,0,1,2.42-.712h.026a4.546,4.546,0,0,1,2.4.683,1.251,1.251,0,0,0,.273.126,1.249,1.249,0,0,0,.206.214,4.56,4.56,0,0,1,1.56,4.588,1.253,1.253,0,0,0-.033.282,1.245,1.245,0,0,0-.127.251,4.582,4.582,0,0,1-3.836,2.955.826.826,0,0,1-.832,0A4.581,4.581,0,0,1,114.538,21.8Zm15.31,49.612h-9.929a1.247,1.247,0,1,0,0,2.493h9.426l-1.712,8.483a.231.231,0,0,1-.226.185H110.314a.231.231,0,0,1-.226-.185L108.376,73.9h2.608a1.247,1.247,0,0,0,0-2.493h-3.111l-1.2-5.968h24.384Zm5.263-11.516V62.95h-32.5V59.894Zm3.349-16.412a16.57,16.57,0,0,1-13.768,4.434,28.622,28.622,0,0,1,12.726-8.168,29.425,29.425,0,0,1,5.252-1.167A25.44,25.44,0,0,1,138.46,43.482Z" transform="translate(-91.557 0)" fill="#5e5e5e"/>
</svg>
