<svg id="Group_1659" data-name="Group 1659" xmlns="http://www.w3.org/2000/svg" width="51.681" height="72.7" viewBox="0 0 51.681 72.7">
  <path id="Path_993" data-name="Path 993" d="M143.063,31.205a1.21,1.21,0,0,0-.985-.507,29.362,29.362,0,0,0-7.768,1.215,30.2,30.2,0,0,0-14.517,9.062l-.01.012h0l0,.005c-.409.47-.78.935-1.113,1.38l-.115-16.021a19.7,19.7,0,0,0,1.946,3.114,6.9,6.9,0,0,0,5.19,2.422h.032a5.671,5.671,0,0,0,3.225-.981,4.756,4.756,0,0,0,2.082-3.691,5.76,5.76,0,0,0-1.44-4.055,31.1,31.1,0,0,0-4.611-3.832,33.861,33.861,0,0,0,6.188-.864,6.727,6.727,0,0,0,3.692-2.648,4.482,4.482,0,0,0,.539-4.114,5.835,5.835,0,0,0-5.632-3.387h-.038a7.776,7.776,0,0,0-2.239.343,32.66,32.66,0,0,0-5.56,2.741,25.8,25.8,0,0,0,1.062-5.638,5.8,5.8,0,0,0-1.649-4.031A5.661,5.661,0,0,0,117.249,0h-.03a5.759,5.759,0,0,0-5.693,5.82,25.915,25.915,0,0,0,1.12,5.625,32.744,32.744,0,0,0-5.592-2.683,7.788,7.788,0,0,0-2.2-.32h-.039a5.829,5.829,0,0,0-5.628,3.444A4.485,4.485,0,0,0,99.774,16a6.748,6.748,0,0,0,3.724,2.611,33.894,33.894,0,0,0,6.2.8,31.014,31.014,0,0,0-4.563,3.879,5.749,5.749,0,0,0-1.39,4.07,4.768,4.768,0,0,0,2.128,3.669,5.675,5.675,0,0,0,3.2.949h.032A6.88,6.88,0,0,0,114.3,29.5a19.5,19.5,0,0,0,1.891-3.1l.115,16.05c-.351-.46-.742-.941-1.176-1.428l-.01-.012h0l0-.006a30.294,30.294,0,0,0-14.628-8.913A29.38,29.38,0,0,0,92.7,30.949a1.206,1.206,0,0,0-.978.516.976.976,0,0,0-.045,1.023,23.662,23.662,0,0,0,5.651,6.418A19.5,19.5,0,0,0,109.623,43.3a21.142,21.142,0,0,0,4.124-.415,22.057,22.057,0,0,1,2.59,3.857l.017,2.32H101.562a1.827,1.827,0,0,0-1.91,1.725V54.2a1.827,1.827,0,0,0,1.91,1.725h1.882l1.424,6.375,0,.011,1.9,8.517A2.534,2.534,0,0,0,109.3,72.7h16.166a2.534,2.534,0,0,0,2.525-1.867l3.329-14.9H133.2a1.827,1.827,0,0,0,1.91-1.725V50.783a1.827,1.827,0,0,0-1.91-1.725H118.712l-.017-2.436a22.245,22.245,0,0,1,2.49-3.78,21.214,21.214,0,0,0,3.926.375A19.458,19.458,0,0,0,137.549,38.7a23.582,23.582,0,0,0,5.571-6.475A.976.976,0,0,0,143.063,31.205Zm-44.12,6.144A22.573,22.573,0,0,1,94.909,33.2a30.438,30.438,0,0,1,4.98.947,27.612,27.612,0,0,1,12.123,6.858A16.8,16.8,0,0,1,98.943,37.349Zm29.3-26.673a5.2,5.2,0,0,1,1.5-.23h.025a3.5,3.5,0,0,1,3.4,1.94,2.56,2.56,0,0,1-.333,2.343,4.4,4.4,0,0,1-2.421,1.718,35.56,35.56,0,0,1-6.412.808c0-.018,0-.036,0-.053a5.509,5.509,0,0,0-.055-.746l2.439-.731a1.046,1.046,0,0,0,.748-1.347,1.211,1.211,0,0,0-1.49-.676l-2.41.723a5.967,5.967,0,0,0-.624-.877A33.592,33.592,0,0,1,128.24,10.677Zm-5.5,14.365a1.26,1.26,0,0,0,.7-.207,1,1,0,0,0,.252-1.489l-1.569-1.93a6.21,6.21,0,0,0,.764-.856,32.687,32.687,0,0,1,4.83,3.9,3.767,3.767,0,0,1,.956,2.644,2.709,2.709,0,0,1-1.164,2.115,3.168,3.168,0,0,1-1.8.54h-.019a4.434,4.434,0,0,1-3.32-1.589,28.312,28.312,0,0,1-2.911-5.223,7.068,7.068,0,0,0,.756-.28l1.578,1.942A1.222,1.222,0,0,0,122.74,25.042ZM117.233,2.131h.016a3.225,3.225,0,0,1,2.317,1.008,3.784,3.784,0,0,1,1.061,2.636,26.7,26.7,0,0,1-1.175,5.749,7.206,7.206,0,0,0-.962-.221l-.033-2.264a1.128,1.128,0,0,0-1.179-1.051h-.016A1.123,1.123,0,0,0,116.1,9.065l.032,2.239a7.225,7.225,0,0,0-1.015.241,26.781,26.781,0,0,1-1.233-5.737A3.524,3.524,0,0,1,117.233,2.131Zm-13,14.45a4.416,4.416,0,0,1-2.442-1.693,2.561,2.561,0,0,1-.362-2.339,3.5,3.5,0,0,1,3.4-1.975h.026a5.2,5.2,0,0,1,1.472.215A33.7,33.7,0,0,1,112,13.6a5.94,5.94,0,0,0-.612.881l-2.413-.7a1.208,1.208,0,0,0-1.482.691,1.048,1.048,0,0,0,.764,1.339l2.442.7a5.494,5.494,0,0,0-.047.749h0c0,.018,0,.035,0,.053A35.584,35.584,0,0,1,104.23,16.581Zm8.185,11.639a4.421,4.421,0,0,1-3.319,1.623,3.151,3.151,0,0,1-1.809-.522,2.717,2.717,0,0,1-1.19-2.1,3.76,3.76,0,0,1,.923-2.654,32.584,32.584,0,0,1,4.78-3.947,6.244,6.244,0,0,0,.779.851l-1.542,1.943a1,1,0,0,0,.271,1.487,1.261,1.261,0,0,0,.686.2,1.222,1.222,0,0,0,.959-.444l1.552-1.956a7.091,7.091,0,0,0,.754.271A28.219,28.219,0,0,1,112.414,28.22Zm.878-9.59a1.037,1.037,0,0,0-.123-.214.964.964,0,0,0-.034-.241,3.567,3.567,0,0,1-.127-.919,3.749,3.749,0,0,1,1.554-3.018,1.116,1.116,0,0,0,.193-.186,1.244,1.244,0,0,0,.253-.107,4.639,4.639,0,0,1,2.289-.608h.024a4.646,4.646,0,0,1,2.269.583,1.247,1.247,0,0,0,.258.107,1.124,1.124,0,0,0,.195.183,3.758,3.758,0,0,1,1.592,3,3.545,3.545,0,0,1-.116.919.972.972,0,0,0-.031.241,1.029,1.029,0,0,0-.121.215,4.291,4.291,0,0,1-3.629,2.526.853.853,0,0,1-.787,0A4.3,4.3,0,0,1,113.293,18.63Zm14.481,42.4h-9.391a1.071,1.071,0,1,0,0,2.131H127.3l-1.619,7.25a.214.214,0,0,1-.214.158H109.3a.215.215,0,0,1-.214-.158l-1.619-7.25h2.466a1.071,1.071,0,1,0,0-2.131h-2.942l-1.139-5.1h23.063Zm4.978-9.842V53.8H102.011V51.189Zm3.168-14.027A16.772,16.772,0,0,1,122.9,40.951a27.535,27.535,0,0,1,12.037-6.981,30.4,30.4,0,0,1,4.967-1A22.5,22.5,0,0,1,135.919,37.162Z" transform="translate(-91.557 0)" fill="#5e5e5e"/>
</svg>
