<svg xmlns="http://www.w3.org/2000/svg" width="19.683" height="29.321" viewBox="0 0 19.683 29.321">
  <g id="Flower" transform="translate(-11.85 -1.934)">
    <path id="Path_1127" data-name="Path 1127" d="M31.877,9.938a1.938,1.938,0,1,0-1.938,1.938A1.938,1.938,0,0,0,31.877,9.938Zm-2.907,0a.969.969,0,1,1,.969.969A.969.969,0,0,1,28.969,9.938Z" transform="translate(-8.247 -3.062)" fill="#fff" stroke="#fff" stroke-width="0.3"/>
    <path id="Path_1128" data-name="Path 1128" d="M30.9,17.537H25.607a4.377,4.377,0,0,1,2.8-3.6.485.485,0,0,0,0-.911,5.33,5.33,0,0,0-6.227,1.943V11.291c.126.039.257.087.388.131a3.631,3.631,0,0,0,1.163.271,1.26,1.26,0,0,0,.649-.165,2.2,2.2,0,0,0,.833-1.657,2.978,2.978,0,0,1,.228-.833,2.73,2.73,0,0,1,.581-.581,2.187,2.187,0,0,0,1.042-1.58A2.187,2.187,0,0,0,26.019,5.3a2.73,2.73,0,0,1-.581-.581,2.978,2.978,0,0,1-.228-.833,2.2,2.2,0,0,0-.833-1.657,2.166,2.166,0,0,0-1.812.107,2.962,2.962,0,0,1-.872.223,2.962,2.962,0,0,1-.872-.223,2.166,2.166,0,0,0-1.812-.107,2.2,2.2,0,0,0-.833,1.657,2.978,2.978,0,0,1-.228.833,2.73,2.73,0,0,1-.581.581,2.187,2.187,0,0,0-1.042,1.58,2.187,2.187,0,0,0,1.042,1.58,2.73,2.73,0,0,1,.581.581,2.978,2.978,0,0,1,.228.833,2.2,2.2,0,0,0,.833,1.657,2.166,2.166,0,0,0,1.812-.107c.131-.044.262-.092.388-.131v3.678a5.315,5.315,0,0,0-5.694-2.108.485.485,0,0,0,0,.94,4.347,4.347,0,0,1,2.723,2.137,5.322,5.322,0,0,0-4.177-.654.485.485,0,0,0,0,.94,4.34,4.34,0,0,1,2.151,1.313H12.485a.485.485,0,0,0-.485.485v2.423a.485.485,0,0,0,.485.485h.528l.926,9.735a.485.485,0,0,0,.485.441H28.96a.485.485,0,0,0,.485-.441l.926-9.735H30.9a.485.485,0,0,0,.485-.485V18.022A.485.485,0,0,0,30.9,17.537ZM26.537,13.66c.107,0,.208,0,.315.01a5.382,5.382,0,0,0-2.224,3.867H22.205A4.369,4.369,0,0,1,26.537,13.66Zm-6.043-3.15c-.383.131-.814.286-1,.179S19.2,10.1,19.128,9.7a3.485,3.485,0,0,0-.344-1.144,3.355,3.355,0,0,0-.8-.838c-.339-.286-.693-.581-.693-.838s.354-.552.693-.838a3.355,3.355,0,0,0,.8-.838,3.485,3.485,0,0,0,.344-1.144c.078-.412.16-.872.363-.989a.3.3,0,0,1,.17-.039,3.014,3.014,0,0,1,.833.213,3.594,3.594,0,0,0,1.2.281,3.594,3.594,0,0,0,1.2-.281c.383-.131.814-.286,1-.179s.291.586.363.993A3.485,3.485,0,0,0,24.6,5.2a3.355,3.355,0,0,0,.8.838c.339.286.693.581.693.838s-.354.552-.693.838a3.355,3.355,0,0,0-.8.838A3.485,3.485,0,0,0,24.255,9.7c-.078.412-.16.872-.363.989s-.62-.044-1-.174a3.594,3.594,0,0,0-1.2-.281A3.594,3.594,0,0,0,20.495,10.511Zm-2.927,3.208a4.376,4.376,0,0,1,3.61,3.818H19.855q-.08-.124-.16-.233a5.347,5.347,0,0,0-2.127-3.586ZM16.1,16.141a4.307,4.307,0,0,1,2.529,1.4H17.422A5.317,5.317,0,0,0,16.1,16.141ZM28.519,30.136H14.864l-.877-9.207H29.4ZM30.414,19.96H12.969V18.506H30.414Z" fill="#fff" stroke="#fff" stroke-width="0.3"/>
  </g>
</svg>
