<svg xmlns="http://www.w3.org/2000/svg" width="27.625" height="26.257" viewBox="0 0 27.625 26.257">
  <g id="home_2_" data-name="home (2)" transform="translate(0 -12.676)">
    <g id="Group_1674" data-name="Group 1674" transform="translate(0 12.676)">
      <path id="Path_1119" data-name="Path 1119" d="M27.161,24.341l-2.334-2.126V15.164a.812.812,0,0,0-.812-.812H18.4a.812.812,0,0,0-.812.812v.452l-2.818-2.568a1.41,1.41,0,0,0-1.908,0L.464,24.341A1.417,1.417,0,0,0,1.418,26.8H3.4V38.12a.812.812,0,0,0,.812.812H11a.812.812,0,0,0,.812-.812V31.25h3.993v6.87a.812.812,0,0,0,.812.812h6.793a.812.812,0,0,0,.812-.812V26.8h1.98a1.417,1.417,0,0,0,.954-2.464Zm-3.746.839a.812.812,0,0,0-.812.812V37.308H17.434v-6.87a.812.812,0,0,0-.812-.812H11a.812.812,0,0,0-.812.812v6.87H5.023V25.992a.812.812,0,0,0-.812-.812H1.956l11.857-10.8,4.038,3.679a.812.812,0,0,0,1.359-.6V15.976H23.2v6.6a.812.812,0,0,0,.265.6l2.2,2.006Z" transform="translate(0 -12.675)" fill="#fff"/>
    </g>
  </g>
</svg>
