<svg xmlns="http://www.w3.org/2000/svg" xmlns:xlink="http://www.w3.org/1999/xlink" viewBox="0 0 527.27 238.36"><defs><style>.cls-1{font-size:85px;fill:#3f6846;font-family:Poppins-Light, Poppins;font-weight:300;}.cls-2{fill:url(#linear-gradient);}.cls-3{fill:url(#linear-gradient-2);}.cls-4{fill:none;stroke:#36593b;stroke-linecap:round;stroke-linejoin:round;stroke-width:2.06px;}.cls-5{fill:#36593b;}</style><linearGradient id="linear-gradient" x1="53.46" y1="128.14" x2="25" y2="54.95" gradientUnits="userSpaceOnUse"><stop offset="0" stop-color="#bcde63"/><stop offset="1" stop-color="#8cc63f"/></linearGradient><linearGradient id="linear-gradient-2" x1="108.11" y1="87.89" x2="152.98" y2="21.61" xlink:href="#linear-gradient"/></defs><g id="Layer_2" data-name="Layer 2"><g id="Layer_1-2" data-name="Layer 1"><text class="cls-1" transform="translate(168.91 188.72)">PlanTree</text><path class="cls-2" d="M77.77,141C7.8,137.49,7.85,67.8,1,52.92,56.28,50.1,75.1,94.75,77.77,141Z"/><path class="cls-3" d="M83,135.1C67.36,39.1,133.6,14.14,149.26,1,168.63,70.43,136.31,129.07,83,135.1Z"/><rect class="cls-4" x="25.1" y="147.2" width="106.11" height="8.54"/><path class="cls-4" d="M122.85,51S98.5,98.7,83.61,134.72c43.15-2.11,85-57.22,66.6-133.69C120.05,13.49,80.86,30.27,75.1,94.75c-18.29-40-46-49.21-74.07-41.83,15.92,81.8,52.8,84.81,76,87.36l-29.71-37.7"/><polyline class="cls-4" points="116.17 195.54 123.87 162.19 32.43 162.19 40.83 195.39"/><path class="cls-5" d="M78.1,238.36c-21.11,0-39.85-8.59-54.51-25.08l-.06-.08-1.13-1.54-.06-.09a5.44,5.44,0,0,1-.43-5.16,3.48,3.48,0,0,1,2.86-1.9c9.29-.82,29.88-2.9,63.38-7.63,6.86-.71,11.41.75,11.91,3.8.72,4.42-7.72,9.18-22,12.41-.43.1-.76.19-1,.27,3.81,1.25,17.92,2.51,25.48-.6,8.21-3.38,12.54-8.5,16.35-13,3.32-3.93,6.19-7.32,10.79-8.78,2.66-.85,5.26-.35,6.8,1.31a4.7,4.7,0,0,1,.85,5h0c-5.27,13.35-12,23-20.61,29.62-8.43,6.45-18.93,10.1-32.09,11.16Q81.29,238.36,78.1,238.36ZM25.25,211.87c15.66,17.6,36.11,25.92,59.13,24.06,25.56-2.06,40.77-13.85,50.85-39.41h0a2.51,2.51,0,0,0-.41-2.76c-.75-.81-2.34-1.42-4.55-.72-4,1.27-6.68,4.44-9.78,8.11-4,4.71-8.49,10-17.19,13.63C98,217,90,217,86.87,216.87c-4.58-.15-10.51-.84-12.17-2.28a1.56,1.56,0,0,1-.59-1.61c.24-.93,1.23-1.51,3.43-2C93,207.48,98.23,203,97.91,201c-.19-1.13-2.93-2.67-9.49-2-33.51,4.74-54.14,6.82-63.46,7.64a1.28,1.28,0,0,0-1.11.73,3.3,3.3,0,0,0,.34,3Z"/></g></g></svg>