<svg xmlns="http://www.w3.org/2000/svg" width="20.324" height="55.431" viewBox="0 0 20.324 55.431">
  <g id="Group_1716" data-name="Group 1716" transform="translate(-65 -434.571)">
    <path id="Path_1040" data-name="Path 1040" d="M10.585,0A6.472,6.472,0,0,0,4.121,6.464V37.428A10.161,10.161,0,1,0,20.743,45.25a10.065,10.065,0,0,0-3.694-7.823V6.464A6.471,6.471,0,0,0,10.585,0ZM18.9,45.25A8.311,8.311,0,1,1,5.6,38.612a.924.924,0,0,0,.369-.739V35.092H7.815V33.245H5.968V30.475H7.815V28.628H5.968V25.857H7.815V24.01H5.968V21.24H7.815V19.393H5.968V16.623H7.815V14.776H5.968V12.005H7.815V10.158H5.968V6.464a4.617,4.617,0,0,1,9.235,0V37.875a.923.923,0,0,0,.369.738A8.248,8.248,0,0,1,18.9,45.25Zm0,0" transform="translate(64.581 434.571)" fill="#5e5e5e"/>
    <path id="Path_1041" data-name="Path 1041" d="M64.209,119.68V87.266H62.362V119.68a4.617,4.617,0,1,0,1.847,0Zm-.923,7.3a2.77,2.77,0,1,1,2.771-2.77A2.77,2.77,0,0,1,63.285,126.975Zm0,0" transform="translate(11.881 355.617)" fill="#5e5e5e"/>
  </g>
</svg>
