<svg xmlns="http://www.w3.org/2000/svg" width="60.691" height="63.418" viewBox="0 0 60.691 63.418">
  <path id="Path_982" data-name="Path 982" d="M70.3,27.847,42.079.6a2.117,2.117,0,0,0-2.955,0L10.906,27.846A2.128,2.128,0,0,0,12.384,31.5h3.75V61.291a2.128,2.128,0,0,0,2.128,2.128H33.155a2.128,2.128,0,0,0,2.128-2.128V44.27H45.921V61.291a2.128,2.128,0,0,0,2.128,2.128H62.942a2.128,2.128,0,0,0,2.128-2.128V31.5h3.75A2.128,2.128,0,0,0,70.3,27.847Zm-5.229,1.53A2.128,2.128,0,0,0,62.942,31.5V61.291H48.048V44.27a2.128,2.128,0,0,0-2.128-2.128H35.282a2.128,2.128,0,0,0-2.128,2.128V61.291H18.261V31.5a2.128,2.128,0,0,0-2.128-2.128h-3.75L40.6,2.132,68.83,29.377H65.069Z" transform="translate(-10.256 -0.001)" fill="#5e5e5e"/>
</svg>
