<svg xmlns="http://www.w3.org/2000/svg" xmlns:xlink="http://www.w3.org/1999/xlink" width="222" height="251" viewBox="0 0 222 251">
  <defs>
    <filter id="card" x="0" y="0" width="222" height="251" filterUnits="userSpaceOnUse">
      <feOffset dy="5" input="SourceAlpha"/>
      <feGaussianBlur stdDeviation="15" result="blur"/>
      <feFlood flood-opacity="0.071"/>
      <feComposite operator="in" in2="blur"/>
      <feComposite in="SourceGraphic"/>
    </filter>
  </defs>
  <g id="Group_1614" data-name="Group 1614" transform="translate(4 -165)">
    <g id="card-broccoli" transform="translate(11 -7.492)">
      <g transform="matrix(1, 0, 0, 1, -15, 172.49)" filter="url(#card)">
        <rect id="card-2" data-name="card" width="132" height="161" rx="8" transform="translate(45 40)" fill="#fff"/>
      </g>
      <text id="House" transform="translate(96 359.492)" fill="#5e5e5e" font-size="14" font-family="Poppins-Medium, Poppins" font-weight="500" letter-spacing="-0.01em"><tspan x="-21.721" y="0">House</tspan></text>
    </g>
    <g id="Group_1567" data-name="Group 1567" transform="translate(76 245.493)">
      <path id="Path_982" data-name="Path 982" d="M70.3,27.847,42.079.6a2.117,2.117,0,0,0-2.955,0L10.906,27.846A2.128,2.128,0,0,0,12.384,31.5h3.75V61.291a2.128,2.128,0,0,0,2.128,2.128H33.155a2.128,2.128,0,0,0,2.128-2.128V44.27H45.921V61.291a2.128,2.128,0,0,0,2.128,2.128H62.942a2.128,2.128,0,0,0,2.128-2.128V31.5h3.75A2.128,2.128,0,0,0,70.3,27.847Zm-5.229,1.53A2.128,2.128,0,0,0,62.942,31.5V61.291H48.048V44.27a2.128,2.128,0,0,0-2.128-2.128H35.282a2.128,2.128,0,0,0-2.128,2.128V61.291H18.261V31.5a2.128,2.128,0,0,0-2.128-2.128h-3.75L40.6,2.132,68.83,29.377H65.069Z" transform="translate(-10.256 -0.001)" fill="#5e5e5e"/>
    </g>
  </g>
</svg>
