<svg xmlns="http://www.w3.org/2000/svg" width="64.5" height="64.5" viewBox="0 0 64.5 64.5">
  <g id="Group_1713" data-name="Group 1713" transform="translate(-237 -421.5)">
    <g id="Group_1720" data-name="Group 1720">
      <text id="_2" data-name="2" transform="translate(269 474)" fill="#5e5e5e" font-size="30" font-family="Futura-Medium, Futura" font-weight="500" letter-spacing="-0.01em"><tspan x="-9.258" y="0">2</tspan></text>
      <path id="Path_1043" data-name="Path 1043" d="M57.55,4.048H52.356V1.89a1.89,1.89,0,0,0-3.779,0V4.048H40.212V1.89a1.89,1.89,0,0,0-3.779,0V4.048H28.068V1.89a1.89,1.89,0,0,0-3.779,0V4.048H15.923V1.89a1.89,1.89,0,0,0-3.779,0V4.048H6.95A6.957,6.957,0,0,0,0,11V57.55A6.957,6.957,0,0,0,6.95,64.5h50.6a6.957,6.957,0,0,0,6.95-6.95V11A6.957,6.957,0,0,0,57.55,4.048ZM6.95,7.828h5.194v.134a1.89,1.89,0,0,0,3.779,0V7.828h8.365v.134a1.89,1.89,0,1,0,3.779,0V7.828h8.365v.134a1.89,1.89,0,0,0,3.779,0V7.828h8.365v.134a1.89,1.89,0,0,0,3.779,0V7.828H57.55A3.174,3.174,0,0,1,60.721,11V20.24H3.779V11A3.174,3.174,0,0,1,6.95,7.828Zm50.6,52.893H6.95A3.174,3.174,0,0,1,3.779,57.55V24.02H60.721V57.55A3.174,3.174,0,0,1,57.55,60.721Zm0,0" transform="translate(237 421.5)" fill="#5e5e5e"/>
    </g>
  </g>
</svg>
