<svg xmlns="http://www.w3.org/2000/svg" xmlns:xlink="http://www.w3.org/1999/xlink" width="222" height="251" viewBox="0 0 222 251">
  <defs>
    <filter id="card" x="0" y="0" width="222" height="251" filterUnits="userSpaceOnUse">
      <feOffset dy="5" input="SourceAlpha"/>
      <feGaussianBlur stdDeviation="15" result="blur"/>
      <feFlood flood-opacity="0.071"/>
      <feComposite operator="in" in2="blur"/>
      <feComposite in="SourceGraphic"/>
    </filter>
  </defs>
  <g id="Group_1712" data-name="Group 1712" transform="translate(-158 -346)">
    <g transform="matrix(1, 0, 0, 1, 158, 346)" filter="url(#card)">
      <g id="card-2" data-name="card" transform="translate(45 40)" fill="#fff">
        <path d="M 124 159.5 L 8 159.5 C 4.415891170501709 159.5 1.5 156.5841064453125 1.5 153 L 1.5 8 C 1.5 4.415891170501709 4.415891170501709 1.5 8 1.5 L 124 1.5 C 127.5841064453125 1.5 130.5 4.415891170501709 130.5 8 L 130.5 153 C 130.5 156.5841064453125 127.5841064453125 159.5 124 159.5 Z" stroke="none"/>
        <path d="M 8 3 C 5.242996215820313 3 3 5.242996215820313 3 8 L 3 153 C 3 155.7570037841797 5.242996215820313 158 8 158 L 124 158 C 126.7570037841797 158 129 155.7570037841797 129 153 L 129 8 C 129 5.242996215820313 126.7570037841797 3 124 3 L 8 3 M 8 0 L 124 0 C 128.4182739257813 0 132 3.58172607421875 132 8 L 132 153 C 132 157.4182739257813 128.4182739257813 161 124 161 L 8 161 C 3.58172607421875 161 0 157.4182739257813 0 153 L 0 8 C 0 3.58172607421875 3.58172607421875 0 8 0 Z" stroke="none" fill="#7fa53e"/>
      </g>
    </g>
    <text id="_2-3_Weeks" data-name="2-3 Weeks" transform="translate(269 533)" fill="#5e5e5e" font-size="14" font-family="Poppins-Medium, Poppins" font-weight="500" letter-spacing="-0.01em"><tspan x="-36.799" y="0">2-3 Weeks</tspan></text>
    <text id="_2" data-name="2" transform="translate(269 474)" fill="#5e5e5e" font-size="30" font-family="Futura-Bold, Futura" font-weight="700" letter-spacing="-0.01em"><tspan x="-9.375" y="0">2</tspan></text>
    <path id="Path_1043" data-name="Path 1043" d="M57.55,4.048H52.356V1.89a1.89,1.89,0,0,0-3.779,0V4.048H40.212V1.89a1.89,1.89,0,0,0-3.779,0V4.048H28.068V1.89a1.89,1.89,0,0,0-3.779,0V4.048H15.923V1.89a1.89,1.89,0,0,0-3.779,0V4.048H6.95A6.957,6.957,0,0,0,0,11V57.55A6.957,6.957,0,0,0,6.95,64.5h50.6a6.957,6.957,0,0,0,6.95-6.95V11A6.957,6.957,0,0,0,57.55,4.048ZM6.95,7.828h5.194v.134a1.89,1.89,0,0,0,3.779,0V7.828h8.365v.134a1.89,1.89,0,1,0,3.779,0V7.828h8.365v.134a1.89,1.89,0,0,0,3.779,0V7.828h8.365v.134a1.89,1.89,0,0,0,3.779,0V7.828H57.55A3.174,3.174,0,0,1,60.721,11V20.24H3.779V11A3.174,3.174,0,0,1,6.95,7.828Zm50.6,52.893H6.95A3.174,3.174,0,0,1,3.779,57.55V24.02H60.721V57.55A3.174,3.174,0,0,1,57.55,60.721Zm0,0" transform="translate(237 421.5)" fill="#5e5e5e"/>
  </g>
</svg>
