<svg xmlns="http://www.w3.org/2000/svg" xmlns:xlink="http://www.w3.org/1999/xlink" viewBox="0 0 612 792"><defs><style>.cls-1{font-size:85px;fill:#3f6846;font-family:Poppins-Light, Poppins;font-weight:300;}.cls-2{fill:url(#linear-gradient);}.cls-3{fill:url(#linear-gradient-2);}.cls-4{fill:none;stroke:#36593b;stroke-linecap:round;stroke-linejoin:round;stroke-width:5.26px;}.cls-5{fill:#36593b;}</style><linearGradient id="linear-gradient" x1="255.37" y1="348.29" x2="182.57" y2="161.05" gradientUnits="userSpaceOnUse"><stop offset="0" stop-color="#bcde63"/><stop offset="1" stop-color="#8cc63f"/></linearGradient><linearGradient id="linear-gradient-2" x1="395.17" y1="245.31" x2="509.95" y2="75.76" xlink:href="#linear-gradient"/></defs><g id="Layer_1" data-name="Layer 1"><text class="cls-1" transform="translate(149.49 716.46)">PlanTree</text><path class="cls-2" d="M317.58,381.23c-179-9-178.86-187.3-196.32-225.38C262.58,148.65,310.73,262.87,317.58,381.23Z"/><path class="cls-3" d="M331.05,366.08C291,120.51,460.37,56.67,500.44,23.12,550,200.66,467.32,350.67,331.05,366.08Z"/><rect class="cls-4" x="182.82" y="397.03" width="271.43" height="21.84"/><path class="cls-4" d="M432.87,151S370.6,273,332.5,365.11c110.38-5.4,217.31-146.38,170.38-342C425.72,55,325.48,97.92,310.73,262.87,264,160.63,193.13,137,121.26,155.85c40.73,209.27,135.06,217,194.4,223.48l-76-96.44"/><polyline class="cls-4" points="415.78 520.68 435.5 435.38 201.58 435.38 223.07 520.31"/><path class="cls-5" d="M318.41,630.23c-54,0-101.93-22-139.43-64.15l-.17-.21-2.89-3.94-.15-.23c-2.6-4.41-3-9.47-1.1-13.2a9,9,0,0,1,7.32-4.87c23.77-2.09,76.45-7.4,162.14-19.5,17.54-1.82,29.16,1.9,30.44,9.7,1.86,11.32-19.73,23.49-56.35,31.76-1.1.25-2,.49-2.64.7,9.73,3.2,45.84,6.42,65.18-1.54,21-8.64,32.06-21.74,41.82-33.29,8.49-10.05,15.82-18.73,27.61-22.47,6.78-2.15,13.45-.87,17.39,3.35a12,12,0,0,1,2.15,12.9h0C456.26,559.4,439,584.18,417,601c-21.58,16.51-48.44,25.85-82.1,28.56Q326.58,630.24,318.41,630.23ZM183.23,562.47c40.06,45,92.36,66.3,151.25,61.54,65.38-5.27,104.28-35.42,130.07-100.82h0a6.41,6.41,0,0,0-1-7.05c-1.93-2.06-6-3.63-11.64-1.84-10.25,3.26-17.1,11.37-25,20.75-10.17,12-21.7,25.69-44,34.85-13.63,5.61-33.95,5.6-42.05,5.34-11.69-.38-26.87-2.13-31.13-5.81a4,4,0,0,1-1.49-4.13c.6-2.38,3.14-3.87,8.78-5.14,39.52-8.93,52.92-20.33,52.09-25.42-.48-2.89-7.48-6.82-24.28-5.08-85.71,12.1-138.49,17.43-162.32,19.52a3.37,3.37,0,0,0-2.86,1.87c-1,2-.67,5,.88,7.7Z"/></g></svg>