<svg xmlns="http://www.w3.org/2000/svg" xmlns:xlink="http://www.w3.org/1999/xlink" width="222" height="251" viewBox="0 0 222 251">
  <defs>
    <filter id="card" x="0" y="0" width="222" height="251" filterUnits="userSpaceOnUse">
      <feOffset dy="5" input="SourceAlpha"/>
      <feGaussianBlur stdDeviation="15" result="blur"/>
      <feFlood flood-opacity="0.071"/>
      <feComposite operator="in" in2="blur"/>
      <feComposite in="SourceGraphic"/>
    </filter>
  </defs>
  <g id="Group_1711" data-name="Group 1711" transform="translate(3 -346)">
    <g transform="matrix(1, 0, 0, 1, -3, 346)" filter="url(#card)">
      <g id="card-2" data-name="card" transform="translate(45 40)" fill="#fff" stroke="#7fa53e" stroke-width="3">
        <rect width="132" height="161" rx="8" stroke="none"/>
        <rect x="1.5" y="1.5" width="129" height="158" rx="6.5" fill="none"/>
      </g>
    </g>
    <text id="_1-2_Weeks" data-name="1-2 Weeks" transform="translate(108 533)" fill="#5e5e5e" font-size="14" font-family="Poppins-Medium, Poppins" font-weight="500" letter-spacing="-0.01em"><tspan x="-35.091" y="0">1-2 Weeks</tspan></text>
    <text id="_1" data-name="1" transform="translate(109 479)" fill="#5e5e5e" font-size="30" font-family="Futura-Bold, Futura" font-weight="700" letter-spacing="-0.01em"><tspan x="-9.375" y="0">1</tspan></text>
    <path id="Path_1043" data-name="Path 1043" d="M57.55,4.048H52.356V1.89a1.89,1.89,0,0,0-3.779,0V4.048H40.212V1.89a1.89,1.89,0,0,0-3.779,0V4.048H28.068V1.89a1.89,1.89,0,0,0-3.779,0V4.048H15.923V1.89a1.89,1.89,0,0,0-3.779,0V4.048H6.95A6.957,6.957,0,0,0,0,11V57.55A6.957,6.957,0,0,0,6.95,64.5h50.6a6.957,6.957,0,0,0,6.95-6.95V11A6.957,6.957,0,0,0,57.55,4.048ZM6.95,7.828h5.194v.134a1.89,1.89,0,0,0,3.779,0V7.828h8.365v.134a1.89,1.89,0,1,0,3.779,0V7.828h8.365v.134a1.89,1.89,0,0,0,3.779,0V7.828h8.365v.134a1.89,1.89,0,0,0,3.779,0V7.828H57.55A3.174,3.174,0,0,1,60.721,11V20.24H3.779V11A3.174,3.174,0,0,1,6.95,7.828Zm50.6,52.893H6.95A3.174,3.174,0,0,1,3.779,57.55V24.02H60.721V57.55A3.174,3.174,0,0,1,57.55,60.721Zm0,0" transform="translate(76 425.5)" fill="#5e5e5e"/>
  </g>
</svg>
