<svg xmlns="http://www.w3.org/2000/svg" xmlns:xlink="http://www.w3.org/1999/xlink" viewBox="0 0 398.22 609.74"><defs><style>.cls-1{fill:url(#linear-gradient);}.cls-2{fill:url(#linear-gradient-2);}.cls-3{fill:none;stroke:#36593b;stroke-linecap:round;stroke-linejoin:round;stroke-width:5.26px;}.cls-4{fill:#36593b;}</style><linearGradient id="linear-gradient" x1="136.74" y1="327.8" x2="63.95" y2="140.56" gradientUnits="userSpaceOnUse"><stop offset="0" stop-color="#bcde63"/><stop offset="1" stop-color="#8cc63f"/></linearGradient><linearGradient id="linear-gradient-2" x1="276.55" y1="224.82" x2="391.33" y2="55.27" xlink:href="#linear-gradient"/></defs><g id="Layer_2" data-name="Layer 2"><g id="Layer_1-2" data-name="Layer 1"><path class="cls-1" d="M199,360.74c-179-9-178.86-187.3-196.32-225.38C144,128.16,192.11,242.38,199,360.74Z"/><path class="cls-2" d="M212.42,345.59C172.32,100,341.75,36.18,381.81,2.63,431.38,180.17,348.69,330.18,212.42,345.59Z"/><rect class="cls-3" x="64.2" y="376.54" width="271.43" height="21.84"/><path class="cls-3" d="M314.25,130.51S252,252.48,213.88,344.62c110.38-5.4,217.3-146.38,170.37-342-77.15,31.89-177.4,74.8-192.14,239.75C145.33,140.14,74.51,116.5,2.63,135.36,43.37,344.63,137.7,352.31,197,358.83L121,262.4"/><polyline class="cls-3" points="297.16 500.19 316.87 414.89 82.96 414.89 104.44 499.82"/><path class="cls-4" d="M199.79,609.74c-54,0-101.94-22-139.44-64.15l-.16-.21-2.89-3.94-.16-.23c-2.6-4.41-3-9.47-1.1-13.2a9,9,0,0,1,7.33-4.87c23.77-2.09,76.44-7.4,162.13-19.5,17.54-1.82,29.17,1.9,30.45,9.7,1.86,11.32-19.74,23.49-56.36,31.76-1.1.25-2,.49-2.64.7,9.74,3.2,45.85,6.42,65.18-1.54,21-8.64,32.07-21.74,41.83-33.29,8.49-10.05,15.82-18.73,27.6-22.47,6.78-2.15,13.45-.87,17.4,3.35a12,12,0,0,1,2.15,12.9h0c-13.48,34.16-30.72,58.94-52.71,75.76C276.82,597,250,606.36,216.3,609.07Q208,609.74,199.79,609.74ZM64.6,542c40.06,45,92.36,66.3,151.25,61.54,65.38-5.27,104.28-35.42,130.07-100.82h0a6.37,6.37,0,0,0-1-7.05c-1.93-2.06-6-3.63-11.63-1.84-10.25,3.26-17.11,11.37-25,20.75-10.17,12-21.7,25.69-44,34.85-13.63,5.61-33.94,5.6-42,5.34-11.7-.38-26.87-2.13-31.13-5.81a4.05,4.05,0,0,1-1.5-4.13c.6-2.38,3.14-3.87,8.78-5.14,39.52-8.93,52.93-20.33,52.09-25.42-.47-2.89-7.47-6.82-24.27-5.08-85.72,12.1-138.5,17.43-162.32,19.52A3.35,3.35,0,0,0,61,530.56c-1,2-.68,5,.88,7.7Z"/></g></g></svg>