<svg id="Layer_1" data-name="Layer 1" xmlns="http://www.w3.org/2000/svg" viewBox="0 0 50 50"><defs><style>.cls-1{fill:#eae544;}</style></defs><circle class="cls-1" cx="25" cy="25" r="11.16"/><rect class="cls-1" x="24.05" y="2.26" width="1.89" height="10.31"/><rect class="cls-1" x="15.26" y="4.62" width="1.89" height="10.31" transform="translate(-2.72 9.41) rotate(-30)"/><rect class="cls-1" x="8.83" y="11.05" width="1.89" height="10.31" transform="matrix(0.5, -0.87, 0.87, 0.5, -9.15, 16.57)"/><rect class="cls-1" x="6.47" y="19.84" width="1.89" height="10.31" transform="translate(-17.58 32.42) rotate(-90)"/><rect class="cls-1" x="8.83" y="28.64" width="1.89" height="10.31" transform="translate(-14.6 59.15) rotate(-120)"/><rect class="cls-1" x="15.26" y="35.07" width="1.89" height="10.31" transform="translate(10.13 83.17) rotate(-150)"/><rect class="cls-1" x="24.05" y="37.43" width="1.89" height="10.31" transform="translate(50 85.16) rotate(-180)"/><rect class="cls-1" x="32.84" y="35.07" width="1.89" height="10.31" transform="translate(83.17 58.17) rotate(150)"/><rect class="cls-1" x="39.28" y="28.64" width="1.89" height="10.31" transform="matrix(-0.5, 0.87, -0.87, -0.5, 89.6, 15.85)"/><rect class="cls-1" x="41.63" y="19.84" width="1.89" height="10.31" transform="translate(67.58 -17.58) rotate(90)"/><rect class="cls-1" x="39.28" y="11.05" width="1.89" height="10.31" transform="translate(34.15 -26.73) rotate(60)"/><rect class="cls-1" x="32.84" y="4.62" width="1.89" height="10.31" transform="matrix(0.87, 0.5, -0.5, 0.87, 9.41, -15.59)"/></svg>