<svg xmlns="http://www.w3.org/2000/svg" width="279" height="48" viewBox="0 0 279 48">
  <g id="sunavoid" transform="translate(-9608 -1359)">
    <g id="sunavoid-2" data-name="sunavoid" transform="translate(9585 691.474)">
      <g id="Group_1649" data-name="Group 1649" transform="translate(23 668)">
        <rect id="Rectangle_1951" data-name="Rectangle 1951" width="279" height="48" rx="12" transform="translate(0 -0.474)" fill="#fff"/>
        <text id="Keep_plant_out_of_direct_sunlight" data-name="Keep plant out of direct sunlight" transform="translate(140 37.526)" fill="#5e5e5e" font-size="12" font-family="Poppins-Light, Poppins" font-weight="300" letter-spacing="-0.01em"><tspan x="-92.748" y="0">Keep plant out of direct sunlight</tspan></text>
      </g>
    </g>
    <g id="Group_1747" data-name="Group 1747">
      <g id="sun" transform="translate(9742.24 1360.24)">
        <path id="Path_1148" data-name="Path 1148" d="M5.276,0A5.276,5.276,0,1,1,0,5.276,5.276,5.276,0,0,1,5.276,0Z" transform="translate(7.734 7.734)" fill="#ffd00d"/>
        <rect id="Rectangle_2013" data-name="Rectangle 2013" width="0.893" height="4.874" transform="translate(12.561 2.26)" fill="#ffd00d"/>
        <rect id="Rectangle_2014" data-name="Rectangle 2014" width="0.893" height="4.874" transform="translate(7.245 3.924) rotate(-30)" fill="#ffd00d"/>
        <rect id="Rectangle_2015" data-name="Rectangle 2015" width="0.897" height="4.891" transform="translate(3.498 8.005) rotate(-60.113)" fill="#ffd00d"/>
        <rect id="Rectangle_2016" data-name="Rectangle 2016" width="0.893" height="4.874" transform="translate(2.26 13.459) rotate(-90)" fill="#ffd00d"/>
        <rect id="Rectangle_2017" data-name="Rectangle 2017" width="0.893" height="4.874" transform="translate(3.928 18.769) rotate(-120)" fill="#ffd00d"/>
        <rect id="Rectangle_2018" data-name="Rectangle 2018" width="0.893" height="4.874" transform="translate(8.022 22.544) rotate(-150)" fill="#ffd00d"/>
        <rect id="Rectangle_2019" data-name="Rectangle 2019" width="0.893" height="4.874" transform="translate(13.459 23.755) rotate(180)" fill="#ffd00d"/>
        <rect id="Rectangle_2020" data-name="Rectangle 2020" width="0.893" height="4.874" transform="translate(18.774 22.095) rotate(150)" fill="#ffd00d"/>
        <rect id="Rectangle_2021" data-name="Rectangle 2021" width="0.897" height="4.891" transform="translate(22.485 18.07) rotate(119.887)" fill="#ffd00d"/>
        <rect id="Rectangle_2022" data-name="Rectangle 2022" width="0.893" height="4.874" transform="translate(23.76 12.561) rotate(90)" fill="#ffd00d"/>
        <rect id="Rectangle_2023" data-name="Rectangle 2023" width="0.893" height="4.874" transform="translate(22.096 7.249) rotate(60)" fill="#ffd00d"/>
        <rect id="Rectangle_2024" data-name="Rectangle 2024" width="0.897" height="4.891" transform="translate(18.054 3.484) rotate(29.887)" fill="#ffd00d"/>
      </g>
      <line id="Line_230" data-name="Line 230" x1="22" y2="20" transform="translate(9744.5 1363.5)" fill="none" stroke="#e02020" stroke-width="3"/>
    </g>
  </g>
</svg>
