<svg xmlns="http://www.w3.org/2000/svg" width="279" height="48" viewBox="0 0 279 48">
  <g id="sunlight" transform="translate(-9962 -1359)">
    <g id="Group_1744" data-name="Group 1744" transform="translate(9939 691.474)">
      <g id="Group_1649" data-name="Group 1649" transform="translate(23 668)">
        <rect id="Rectangle_1951" data-name="Rectangle 1951" width="279" height="48" rx="12" transform="translate(0 -0.474)" fill="#fff"/>
        <text id="Keep_plant_in_light_sunlight" data-name="Keep plant in light sunlight" transform="translate(140 37.526)" fill="#5e5e5e" font-size="12" font-family="Poppins-Light, Poppins" font-weight="300" letter-spacing="-0.01em"><tspan x="-76.578" y="0">Keep plant in light sunlight</tspan></text>
      </g>
    </g>
    <g id="Group_1748" data-name="Group 1748">
      <g id="Group_1746" data-name="Group 1746" transform="translate(11)">
        <g id="sun" transform="translate(10073 1362)">
          <ellipse id="Ellipse_518" data-name="Ellipse 518" cx="4.612" cy="4.612" rx="4.612" ry="4.612" transform="translate(4.786 4.786)" fill="#ffd00d"/>
          <rect id="Rectangle_2013" data-name="Rectangle 2013" width="0.781" height="4.261" transform="translate(9.005 0)" fill="#ffd00d"/>
          <rect id="Rectangle_2014" data-name="Rectangle 2014" width="0.781" height="4.261" transform="translate(4.358 1.455) rotate(-30)" fill="#ffd00d"/>
          <rect id="Rectangle_2015" data-name="Rectangle 2015" width="0.784" height="4.275" transform="translate(1.082 5.022) rotate(-60.113)" fill="#ffd00d"/>
          <rect id="Rectangle_2016" data-name="Rectangle 2016" width="0.781" height="4.261" transform="translate(0 9.79) rotate(-90)" fill="#ffd00d"/>
          <rect id="Rectangle_2017" data-name="Rectangle 2017" width="0.781" height="4.261" transform="translate(1.458 14.432) rotate(-120)" fill="#ffd00d"/>
          <rect id="Rectangle_2018" data-name="Rectangle 2018" width="0.781" height="4.261" transform="translate(5.037 17.732) rotate(-150)" fill="#ffd00d"/>
          <rect id="Rectangle_2019" data-name="Rectangle 2019" width="0.781" height="4.261" transform="translate(9.79 18.791) rotate(180)" fill="#ffd00d"/>
          <rect id="Rectangle_2020" data-name="Rectangle 2020" width="0.781" height="4.261" transform="translate(14.437 17.34) rotate(150)" fill="#ffd00d"/>
          <rect id="Rectangle_2021" data-name="Rectangle 2021" width="0.784" height="4.275" transform="translate(17.681 13.821) rotate(119.887)" fill="#ffd00d"/>
          <rect id="Rectangle_2022" data-name="Rectangle 2022" width="0.781" height="4.261" transform="translate(18.795 9.005) rotate(90)" fill="#ffd00d"/>
          <rect id="Rectangle_2023" data-name="Rectangle 2023" width="0.781" height="4.261" transform="translate(17.341 4.361) rotate(60)" fill="#ffd00d"/>
          <rect id="Rectangle_2024" data-name="Rectangle 2024" width="0.784" height="4.275" transform="translate(13.808 1.07) rotate(29.887)" fill="#ffd00d"/>
        </g>
        <path id="cloudy_1_" data-name="cloudy (1)" d="M22.072,7a5.162,5.162,0,0,0-1.024.1,3.4,3.4,0,0,0-2.065-3.358A3.781,3.781,0,0,0,14.7,4.786,5.381,5.381,0,0,0,7.919.73,6.057,6.057,0,0,0,4.687,9.122,3.65,3.65,0,0,0,.124,13.068C.4,15.429,1.89,16.714,4.687,17.339s15.227.464,18.078,0a4.871,4.871,0,0,0,4.477-5.169A5.154,5.154,0,0,0,22.072,7Zm0,0" transform="translate(10080.538 1365.652)" fill="#e0f2f8"/>
      </g>
    </g>
  </g>
</svg>
