<svg xmlns="http://www.w3.org/2000/svg" width="22.977" height="21.328" viewBox="0 0 22.977 21.328">
  <g id="abc-block" transform="translate(-9.473 0.177)">
    <g id="Group_1689" data-name="Group 1689" transform="translate(14.821 0)">
      <g id="Group_1688" data-name="Group 1688" transform="translate(0 0)">
        <path id="Path_1129" data-name="Path 1129" d="M95.061,7.3,92.377.451a.725.725,0,0,0-.931-.4L84.594,2.732a.717.717,0,0,0-.4.931l2.7,6.852a.717.717,0,0,0,.931.4l6.832-2.684A.717.717,0,0,0,95.061,7.3Zm-7.448,2.829-2.62-6.666L91.659.842l2.62,6.67Z" transform="translate(-84.14 0)" fill="#fff" stroke="#fff" stroke-width="0.3"/>
      </g>
    </g>
    <g id="Group_1691" data-name="Group 1691" transform="translate(9.623 12.223)">
      <g id="Group_1690" data-name="Group 1690" transform="translate(0)">
        <path id="Path_1130" data-name="Path 1130" d="M17.68,230.316H10.34a.717.717,0,0,0-.717.717v7.343a.717.717,0,0,0,.717.717H17.68a.717.717,0,0,0,.717-.717v-7.343A.717.717,0,0,0,17.68,230.316Zm-.089,7.968H10.429v-7.162h7.162Z" transform="translate(-9.623 -230.316)" fill="#fff" stroke="#fff" stroke-width="0.3"/>
      </g>
    </g>
    <g id="Group_1693" data-name="Group 1693" transform="translate(21.882 10.275)">
      <g id="Group_1692" data-name="Group 1692">
        <path id="Path_1131" data-name="Path 1131" d="M198.378,193.567l-7.093-1.886a.73.73,0,0,0-.879.524L188.52,199.3a.717.717,0,0,0,.507.879h0l7.093,1.886a.717.717,0,0,0,.879-.507h0l1.87-7.11A.717.717,0,0,0,198.378,193.567Zm-2.132,7.658-6.924-1.818,1.842-6.92,6.92,1.842Z" transform="translate(-188.495 -191.66)" fill="#fff" stroke="#fff" stroke-width="0.3"/>
      </g>
    </g>
    <g id="Group_1695" data-name="Group 1695" transform="translate(19.252 3.396)">
      <g id="Group_1694" data-name="Group 1694">
        <path id="Path_1132" data-name="Path 1132" d="M171.687,67.855a1.359,1.359,0,0,0-.286-.371l-2.015-2.124-.238-.258a1.208,1.208,0,0,0-.2-.165.565.565,0,0,0-.242-.093.681.681,0,0,0-.548.218.56.56,0,0,0-.113.234,1.421,1.421,0,0,0-.028.306v3.236q.012.181.02.278a.6.6,0,0,0,.036.177.359.359,0,0,0,.214.2.4.4,0,0,0,.306,0,.318.318,0,0,0,.214-.2,1.911,1.911,0,0,0,.032-.472v-.576l1.592-.625.379.4.173.173a.891.891,0,0,0,.165.137.347.347,0,0,0,.149.048.379.379,0,0,0,.173-.028.4.4,0,0,0,.214-.206A.375.375,0,0,0,171.687,67.855Zm-2.882-.294-.056-1.83,1.225,1.37Z" transform="translate(-168.019 -64.843)" fill="#fff" stroke="#fff" stroke-width="0.3"/>
      </g>
    </g>
    <g id="Group_1697" data-name="Group 1697" transform="translate(12.361 14.315)">
      <g id="Group_1696" data-name="Group 1696">
        <path id="Path_1133" data-name="Path 1133" d="M66.621,273.835a.967.967,0,0,0,.629-.923,1.007,1.007,0,0,0-.06-.347,1,1,0,0,0-.173-.3,1.031,1.031,0,0,0-.262-.226,1.113,1.113,0,0,0-.4-.145,3.191,3.191,0,0,0-.52-.036H64.493a.54.54,0,0,0-.4.121.552.552,0,0,0-.121.4v3.16a.56.56,0,0,0,.117.4.532.532,0,0,0,.407.125h1.286a4.517,4.517,0,0,0,.56-.052,1.732,1.732,0,0,0,.443-.113,1.084,1.084,0,0,0,.488-.4,1.153,1.153,0,0,0,.181-.637A1.028,1.028,0,0,0,66.621,273.835Zm-1.794-1.33H65.5a1.734,1.734,0,0,1,.689.1.4.4,0,0,1,.226.4.521.521,0,0,1-.073.27.467.467,0,0,1-.266.23,1.564,1.564,0,0,1-.492.06h-.778Zm1.757,2.3q0,.621-.863.621h-.915l.02-1.225H65.7a1.253,1.253,0,0,1,.669.145A.508.508,0,0,1,66.584,274.806Z" transform="translate(-63.966 -271.853)" fill="#fff" stroke="#fff" stroke-width="0.3"/>
      </g>
    </g>
    <g id="Group_1699" data-name="Group 1699" transform="translate(24.574 13.028)">
      <g id="Group_1698" data-name="Group 1698">
        <path id="Path_1134" data-name="Path 1134" d="M258.717,250.11a1.64,1.64,0,0,0-.48-.653,1.963,1.963,0,0,0-.806-.4,2.088,2.088,0,0,0-.806-.06,1.846,1.846,0,0,0-.734.254,1.947,1.947,0,0,0-.584.556,2.621,2.621,0,0,0-.375.838,2.857,2.857,0,0,0-.1.584,2.277,2.277,0,0,0,.036.552,2.089,2.089,0,0,0,.161.5,1.677,1.677,0,0,0,.306.443,1.706,1.706,0,0,0,.427.318,2.68,2.68,0,0,0,.568.218,1.943,1.943,0,0,0,.778.06,1.585,1.585,0,0,0,.617-.234,1.562,1.562,0,0,0,.4-.363,1.112,1.112,0,0,0,.206-.4.351.351,0,0,0-.036-.282.359.359,0,0,0-.226-.169.306.306,0,0,0-.278.036.91.91,0,0,0-.2.226,1.1,1.1,0,0,1-.508.4,1.04,1.04,0,0,1-.645,0,1.076,1.076,0,0,1-.512-.254,1.028,1.028,0,0,1-.25-.568,2.1,2.1,0,0,1,.077-.806,1.81,1.81,0,0,1,.588-1.044,1.008,1.008,0,0,1,.911-.169.96.96,0,0,1,.5.29,1.286,1.286,0,0,1,.258.552,1.077,1.077,0,0,0,.109.306.343.343,0,0,0,.218.137.326.326,0,0,0,.27-.044.367.367,0,0,0,.165-.222A1,1,0,0,0,258.717,250.11Z" transform="translate(-254.832 -248.978)" fill="#fff" stroke="#fff" stroke-width="0.3"/>
      </g>
    </g>
  </g>
</svg>
