<svg xmlns="http://www.w3.org/2000/svg" xmlns:xlink="http://www.w3.org/1999/xlink" width="222" height="251" viewBox="0 0 222 251">
  <defs>
    <filter id="card" x="0" y="0" width="222" height="251" filterUnits="userSpaceOnUse">
      <feOffset dy="5" input="SourceAlpha"/>
      <feGaussianBlur stdDeviation="15" result="blur"/>
      <feFlood flood-opacity="0.071"/>
      <feComposite operator="in" in2="blur"/>
      <feComposite in="SourceGraphic"/>
    </filter>
  </defs>
  <g id="Group_1662" data-name="Group 1662" transform="translate(-2330 -1536)">
    <g transform="matrix(1, 0, 0, 1, 2330, 1536)" filter="url(#card)">
      <rect id="card-2" data-name="card" width="132" height="161" rx="8" transform="translate(45 40)" fill="#fff"/>
    </g>
    <text id="Tree" transform="translate(2441 1723)" fill="#5e5e5e" font-size="14" font-family="Poppins-Medium, Poppins" font-weight="500" letter-spacing="-0.01em"><tspan x="-15.064" y="0">Tree</tspan></text>
    <g id="tree-2" data-name="tree" transform="translate(2410.683 1611.938)">
      <path id="Path_1082" data-name="Path 1082" d="M265.5,157.223a1.168,1.168,0,0,0,.826-.342l1.169-1.169a1.169,1.169,0,0,0-1.652-1.653l-1.169,1.169a1.169,1.169,0,0,0,.826,1.995Zm0,0" transform="translate(-225.443 -131.274)" fill="#5e5e5e"/>
      <path id="Path_1084" data-name="Path 1084" d="M36.975,58.2a4.567,4.567,0,0,0,2.405,1.118,4.664,4.664,0,0,0,1.694-.087,4.617,4.617,0,0,0,7.16,1.738,4.617,4.617,0,0,0,7.159-1.739,4.62,4.62,0,0,0,4.42-7.681,4.621,4.621,0,0,0-4.42-7.682,4.614,4.614,0,0,0-7.159-1.739,4.614,4.614,0,0,0-7.16,1.739,4.62,4.62,0,0,0-4.42,7.682A4.65,4.65,0,0,0,35.412,55.3a4.532,4.532,0,0,0,.233.945l-3.772,1.76V39.739a8.394,8.394,0,0,0,13.069-4.517A8.416,8.416,0,0,0,53.1,20.685a8.414,8.414,0,0,0-8.16-14.533A8.407,8.407,0,0,0,30.7,2.662,8.407,8.407,0,0,0,16.466,6.153,8.414,8.414,0,0,0,8.308,20.69a8.414,8.414,0,0,0,8.158,14.537,8.394,8.394,0,0,0,13.069,4.512V62.681l-3.771-1.76A4.532,4.532,0,0,0,26,59.975a4.648,4.648,0,0,0-1.243-3.747,4.621,4.621,0,0,0-4.42-7.682,4.614,4.614,0,0,0-7.16-1.739,4.614,4.614,0,0,0-7.16,1.739,4.62,4.62,0,0,0-4.42,7.682,4.62,4.62,0,0,0,4.42,7.681,4.617,4.617,0,0,0,7.16,1.739,4.617,4.617,0,0,0,7.159-1.739A4.689,4.689,0,0,0,22.028,64a4.567,4.567,0,0,0,2.405-1.118l5.1,2.382v5.1H1.488a1.169,1.169,0,1,0,0,2.337H59.814a1.169,1.169,0,0,0,0-2.337H31.873V60.585Zm.758-3.179a2.272,2.272,0,0,1,.935-2.138,1.636,1.636,0,0,0,0-2.665,2.282,2.282,0,0,1,2.22-3.96,1.636,1.636,0,0,0,2.22-1.106,2.276,2.276,0,0,1,3.917-.959,1.689,1.689,0,0,0,2.434,0,2.277,2.277,0,0,1,3.916.96,1.636,1.636,0,0,0,2.215,1.106,2.284,2.284,0,0,1,2.22,3.96,1.637,1.637,0,0,0,0,2.666,2.267,2.267,0,0,1,.935,2.137,2.293,2.293,0,0,1-1.954,1.98,2.256,2.256,0,0,1-1.2-.159,1.636,1.636,0,0,0-2.22,1.108,2.279,2.279,0,0,1-3.917.958,1.636,1.636,0,0,0-2.434,0,2.278,2.278,0,0,1-3.916-.959,1.636,1.636,0,0,0-2.22-1.107,2.264,2.264,0,0,1-1.2.158c-.031,0-.056-.021-.086-.027l9.126-4.258a1.169,1.169,0,1,0-.989-2.118L37.8,55.242a1.783,1.783,0,0,1-.069-.217ZM21.723,61.68a2.258,2.258,0,0,1-1.2-.159,1.636,1.636,0,0,0-2.22,1.108,2.279,2.279,0,0,1-3.917.958,1.636,1.636,0,0,0-2.434,0,2.277,2.277,0,0,1-3.916-.959,1.637,1.637,0,0,0-2.221-1.107,2.262,2.262,0,0,1-1.2.158A2.285,2.285,0,0,1,3.6,57.561a1.635,1.635,0,0,0,0-2.665,2.283,2.283,0,0,1,2.221-3.96,1.636,1.636,0,0,0,2.22-1.106,2.277,2.277,0,0,1,3.917-.96,1.689,1.689,0,0,0,2.434,0,2.276,2.276,0,0,1,3.916.961,1.636,1.636,0,0,0,2.215,1.106,2.284,2.284,0,0,1,2.22,3.96,1.635,1.635,0,0,0,0,2.665,2.269,2.269,0,0,1,.935,2.138,1.681,1.681,0,0,1-.064.216l-9.942-4.639a1.169,1.169,0,0,0-.989,2.118l9.126,4.258c-.033.005-.058.022-.088.026ZM29.112,37a6.071,6.071,0,0,1-10.435-2.558,2.146,2.146,0,0,0-2.9-1.453,5.989,5.989,0,0,1-3.185.425,6.118,6.118,0,0,1-5.213-5.28,6.035,6.035,0,0,1,2.486-5.689,2.162,2.162,0,0,0,0-3.513,6.036,6.036,0,0,1-2.489-5.685A6.117,6.117,0,0,1,12.59,7.969a6,6,0,0,1,3.185.425,2.146,2.146,0,0,0,2.9-1.454A6.07,6.07,0,0,1,29.11,4.382a2.22,2.22,0,0,0,3.189,0A6.072,6.072,0,0,1,42.735,6.94a2.146,2.146,0,0,0,2.9,1.453,6.029,6.029,0,0,1,3.182-.424,6.118,6.118,0,0,1,5.212,5.28,6.036,6.036,0,0,1-2.486,5.688,2.162,2.162,0,0,0,0,3.513,6.037,6.037,0,0,1,2.488,5.685,6.119,6.119,0,0,1-5.215,5.277,6,6,0,0,1-3.186-.426,2.145,2.145,0,0,0-2.9,1.454A6.07,6.07,0,0,1,32.3,37a2.1,2.1,0,0,0-.427-.351V34.613l6.67-6.67a1.169,1.169,0,0,0-1.652-1.653l-5.016,5.017v-11.2a1.169,1.169,0,0,0-2.337,0v5.8l-4.068-4.068a1.169,1.169,0,0,0-1.652,1.654l5.72,5.72v7.434A2.058,2.058,0,0,0,29.11,37Zm0,0" transform="translate(0)" fill="#5e5e5e"/>
    </g>
  </g>
</svg>
