<svg xmlns="http://www.w3.org/2000/svg" width="19.685" height="26.111" viewBox="0 0 19.685 26.111">
  <g id="pine" transform="translate(-63.726 0.15)">
    <g id="Group_1687" data-name="Group 1687" transform="translate(63.885 0)">
      <path id="Path_1126" data-name="Path 1126" d="M83.139,20.64l-4.318-5.589H81.1a.538.538,0,0,0,.424-.868L77.179,8.6h2.307a.539.539,0,0,0,.423-.87L73.992.194a.558.558,0,0,0-.847,0L67.228,7.726a.539.539,0,0,0,.423.87h2.307l-4.346,5.587a.538.538,0,0,0,.424.868h2.279L64,20.64a.538.538,0,0,0,.426.867h6.86a6.414,6.414,0,0,1-1.323,3.385.538.538,0,0,0,.38.918H76.8a.538.538,0,0,0,.38-.918,6.414,6.414,0,0,1-1.323-3.385h6.86a.538.538,0,0,0,.426-.867ZM71.4,24.735a9.627,9.627,0,0,0,.973-3.228h2.393a9.625,9.625,0,0,0,.973,3.228Zm-5.88-4.3,4.318-5.589a.538.538,0,0,0-.426-.867H67.137l4.346-5.587a.538.538,0,0,0-.424-.868h-2.3L73.569,1.4,78.38,7.52h-2.3a.538.538,0,0,0-.424.868L80,13.976H77.725a.538.538,0,0,0-.426.867l4.318,5.589Z" transform="translate(-63.885 0)" fill="#fff" stroke="#fff" stroke-width="0.3"/>
    </g>
  </g>
</svg>
