<svg id="information" xmlns="http://www.w3.org/2000/svg" width="25.261" height="25.261" viewBox="0 0 25.261 25.261">
  <g id="Group_1561" data-name="Group 1561">
    <g id="Group_1560" data-name="Group 1560">
      <path id="Path_978" data-name="Path 978" d="M12.63,0a12.63,12.63,0,1,0,12.63,12.63A12.623,12.623,0,0,0,12.63,0Zm0,23.287A10.657,10.657,0,1,1,23.287,12.63,10.651,10.651,0,0,1,12.63,23.287Z" fill="#9b9b9b"/>
    </g>
  </g>
  <g id="Group_1563" data-name="Group 1563" transform="translate(11.644 10.575)">
    <g id="Group_1562" data-name="Group 1562">
      <path id="Path_979" data-name="Path 979" d="M236.987,214.33a.987.987,0,0,0-.987.987v6.354a.987.987,0,1,0,1.973,0v-6.354A.987.987,0,0,0,236.987,214.33Z" transform="translate(-236 -214.33)" fill="#9b9b9b"/>
    </g>
  </g>
  <g id="Group_1565" data-name="Group 1565" transform="translate(11.298 6.702)">
    <g id="Group_1564" data-name="Group 1564">
      <circle id="Ellipse_509" data-name="Ellipse 509" cx="1.332" cy="1.332" r="1.332" fill="#9b9b9b"/>
    </g>
  </g>
</svg>
