<svg xmlns="http://www.w3.org/2000/svg" xmlns:xlink="http://www.w3.org/1999/xlink" width="383" height="251" viewBox="0 0 383 251">
  <defs>
    <filter id="card" x="0" y="0" width="222" height="251" filterUnits="userSpaceOnUse">
      <feOffset dy="5" input="SourceAlpha"/>
      <feGaussianBlur stdDeviation="15" result="blur"/>
      <feFlood flood-opacity="0.071"/>
      <feComposite operator="in" in2="blur"/>
      <feComposite in="SourceGraphic"/>
    </filter>
    <filter id="card-2" x="161" y="0" width="222" height="251" filterUnits="userSpaceOnUse">
      <feOffset dy="5" input="SourceAlpha"/>
      <feGaussianBlur stdDeviation="15" result="blur-2"/>
      <feFlood flood-opacity="0.071"/>
      <feComposite operator="in" in2="blur-2"/>
      <feComposite in="SourceGraphic"/>
    </filter>
  </defs>
  <g id="Group_1733" data-name="Group 1733" transform="translate(4 -165)">
    <g id="Group_1614" data-name="Group 1614">
      <g id="Group_1727" data-name="Group 1727">
        <g id="card-broccoli" transform="translate(11 -7.492)">
          <g transform="matrix(1, 0, 0, 1, -15, 172.49)" filter="url(#card)">
            <rect id="card-3" data-name="card" width="132" height="161" rx="8" transform="translate(45 40)" fill="#fff"/>
          </g>
          <text id="House" transform="translate(96 359.492)" fill="#5e5e5e" font-size="14" font-family="Poppins-Medium, Poppins" font-weight="500" letter-spacing="-0.01em"><tspan x="-21.672" y="0">House</tspan></text>
        </g>
        <g id="Group_1567" data-name="Group 1567" transform="translate(76 245.493)">
          <path id="Path_982" data-name="Path 982" d="M70.3,27.847,42.079.6a2.117,2.117,0,0,0-2.955,0L10.906,27.846A2.128,2.128,0,0,0,12.384,31.5h3.75V61.291a2.128,2.128,0,0,0,2.128,2.128H33.155a2.128,2.128,0,0,0,2.128-2.128V44.27H45.921V61.291a2.128,2.128,0,0,0,2.128,2.128H62.942a2.128,2.128,0,0,0,2.128-2.128V31.5h3.75A2.128,2.128,0,0,0,70.3,27.847Zm-5.229,1.53A2.128,2.128,0,0,0,62.942,31.5V61.291H48.048V44.27a2.128,2.128,0,0,0-2.128-2.128H35.282a2.128,2.128,0,0,0-2.128,2.128V61.291H18.261V31.5a2.128,2.128,0,0,0-2.128-2.128h-3.75L40.6,2.132,68.83,29.377H65.069Z" transform="translate(-10.256 -0.001)" fill="#5e5e5e"/>
        </g>
      </g>
    </g>
    <g id="Group_1573" data-name="Group 1573" transform="translate(249.488 248.563)">
      <g id="Group_1572" data-name="Group 1572" transform="translate(0)">
        <path id="Path_985" data-name="Path 985" d="M119.294,33.76H112.82a1.14,1.14,0,0,0-1.14,1.14v6.474a1.14,1.14,0,0,0,1.14,1.14h6.474a1.14,1.14,0,0,0,1.14-1.14V34.9A1.14,1.14,0,0,0,119.294,33.76Zm-1.14,6.474H113.96V36.04h4.194Z" transform="translate(-111.68 -33.76)" fill="#5e5e5e"/>
      </g>
    </g>
    <g id="Group_1577" data-name="Group 1577" transform="translate(249.488 260.28)">
      <g id="Group_1576" data-name="Group 1576" transform="translate(0)">
        <path id="Path_987" data-name="Path 987" d="M119.294,116H112.82a1.14,1.14,0,0,0-1.14,1.14v6.5a1.14,1.14,0,0,0,1.14,1.14h6.474a1.14,1.14,0,0,0,1.14-1.14v-6.5A1.14,1.14,0,0,0,119.294,116Zm-1.14,6.474H113.96V118.28h4.194Z" transform="translate(-111.68 -116)" fill="#5e5e5e"/>
      </g>
    </g>
    <g id="Group_1613" data-name="Group 1613">
      <g id="card-broccoli-2" data-name="card-broccoli" transform="translate(172 -7.492)">
        <g transform="matrix(1, 0, 0, 1, -176, 172.49)" filter="url(#card-2)">
          <rect id="card-4" data-name="card" width="132" height="161" rx="8" transform="translate(206 40)" fill="#fff"/>
        </g>
        <text id="Apartment" transform="translate(96 359.492)" fill="#5e5e5e" font-size="14" font-family="Poppins-Medium, Poppins" font-weight="500" letter-spacing="-0.01em"><tspan x="-38.017" y="0">Apartment</tspan></text>
      </g>
      <g id="Group_1569" data-name="Group 1569" transform="translate(242 243.753)">
        <g id="Group_1568" data-name="Group 1568" transform="translate(0)">
          <path id="Path_983" data-name="Path 983" d="M108.381,27.776h-8.1V1.14A1.14,1.14,0,0,0,99.137,0H60.26a1.14,1.14,0,0,0-1.14,1.14V66.107a1.14,1.14,0,0,0,1.14,1.14h48.121a1.14,1.14,0,0,0,1.14-1.14V28.916A1.14,1.14,0,0,0,108.381,27.776Zm-40.906,1.14V64.967H61.4V2.28H98v25.5H68.614A1.14,1.14,0,0,0,67.475,28.916ZM87.352,64.967H77.094V54.447H87.352Zm12.538,0H89.632V54.447H99.89Zm2.245,0V53.307a1.14,1.14,0,0,0-1.14-1.14H76a1.14,1.14,0,0,0-1.14,1.14v11.66H69.754V30.056h37.487l.034,34.911Z" transform="translate(-59.12)" fill="#5e5e5e"/>
        </g>
      </g>
      <g id="Group_1571" data-name="Group 1571" transform="translate(266.585 248.563)">
        <g id="Group_1570" data-name="Group 1570">
          <path id="Path_984" data-name="Path 984" d="M239.305,33.76H232.82a1.14,1.14,0,0,0-1.14,1.14v6.474a1.14,1.14,0,0,0,1.14,1.14h6.474a1.14,1.14,0,0,0,1.14-1.14V34.9A1.14,1.14,0,0,0,239.305,33.76Zm-5.346,6.474V36.04h4.194l.011,4.194Z" transform="translate(-231.68 -33.76)" fill="#5e5e5e"/>
        </g>
      </g>
      <g id="Group_1575" data-name="Group 1575" transform="translate(266.585 260.28)">
        <g id="Group_1574" data-name="Group 1574">
          <path id="Path_986" data-name="Path 986" d="M239.305,116H232.82a1.14,1.14,0,0,0-1.14,1.14v6.5a1.14,1.14,0,0,0,1.14,1.14h6.474a1.14,1.14,0,0,0,1.14-1.14v-6.5A1.14,1.14,0,0,0,239.305,116Zm-5.346,6.474V118.28h4.194l.011,4.194Z" transform="translate(-231.68 -116)" fill="#5e5e5e"/>
        </g>
      </g>
      <g id="Group_1579" data-name="Group 1579" transform="translate(275.543 275.382)">
        <g id="Group_1578" data-name="Group 1578">
          <path id="Path_988" data-name="Path 988" d="M302.174,222H295.7a1.14,1.14,0,0,0-1.14,1.14v6.474a1.14,1.14,0,0,0,1.14,1.14h6.474a1.14,1.14,0,0,0,1.14-1.14V223.14A1.14,1.14,0,0,0,302.174,222Zm-1.14,6.474H296.84V224.28h4.194Z" transform="translate(-294.56 -222)" fill="#5e5e5e"/>
        </g>
      </g>
      <g id="Group_1581" data-name="Group 1581" transform="translate(258.447 275.382)">
        <g id="Group_1580" data-name="Group 1580" transform="translate(0)">
          <path id="Path_989" data-name="Path 989" d="M182.174,222H175.7a1.14,1.14,0,0,0-1.14,1.14v6.474a1.14,1.14,0,0,0,1.14,1.14h6.474a1.14,1.14,0,0,0,1.14-1.14V223.14A1.14,1.14,0,0,0,182.174,222Zm-1.14,6.474H176.84V224.28h4.194Z" transform="translate(-174.56 -222)" fill="#5e5e5e"/>
        </g>
      </g>
      <g id="Group_1583" data-name="Group 1583" transform="translate(275.543 285.902)">
        <g id="Group_1582" data-name="Group 1582">
          <path id="Path_990" data-name="Path 990" d="M302.174,295.84H295.7a1.14,1.14,0,0,0-1.14,1.14v6.474a1.14,1.14,0,0,0,1.14,1.14h6.474a1.14,1.14,0,0,0,1.14-1.14V296.98A1.14,1.14,0,0,0,302.174,295.84Zm-1.14,6.474H296.84V298.12h4.194Z" transform="translate(-294.56 -295.84)" fill="#5e5e5e"/>
        </g>
      </g>
      <g id="Group_1585" data-name="Group 1585" transform="translate(258.447 285.902)">
        <g id="Group_1584" data-name="Group 1584" transform="translate(0)">
          <path id="Path_991" data-name="Path 991" d="M182.174,295.84H175.7a1.14,1.14,0,0,0-1.14,1.14v6.474a1.14,1.14,0,0,0,1.14,1.14h6.474a1.14,1.14,0,0,0,1.14-1.14V296.98A1.14,1.14,0,0,0,182.174,295.84Zm-1.14,6.474H176.84V298.12h4.194Z" transform="translate(-174.56 -295.84)" fill="#5e5e5e"/>
        </g>
      </g>
      <g id="Group_1633" data-name="Group 1633" transform="translate(253.585 248.563)">
        <g id="Group_1570-2" data-name="Group 1570">
          <path id="Path_984-2" data-name="Path 984" d="M239.305,33.76H232.82a1.14,1.14,0,0,0-1.14,1.14v6.474a1.14,1.14,0,0,0,1.14,1.14h6.474a1.14,1.14,0,0,0,1.14-1.14V34.9A1.14,1.14,0,0,0,239.305,33.76Zm-5.346,6.474V36.04h4.194l.011,4.194Z" transform="translate(-231.68 -33.76)" fill="#5e5e5e"/>
        </g>
      </g>
      <g id="Group_1634" data-name="Group 1634" transform="translate(253.585 260.28)">
        <g id="Group_1574-2" data-name="Group 1574">
          <path id="Path_986-2" data-name="Path 986" d="M239.305,116H232.82a1.14,1.14,0,0,0-1.14,1.14v6.5a1.14,1.14,0,0,0,1.14,1.14h6.474a1.14,1.14,0,0,0,1.14-1.14v-6.5A1.14,1.14,0,0,0,239.305,116Zm-5.346,6.474V118.28h4.194l.011,4.194Z" transform="translate(-231.68 -116)" fill="#5e5e5e"/>
        </g>
      </g>
    </g>
    <path id="Icon_awesome-hand-pointer" data-name="Icon awesome-hand-pointer" d="M31.5,16.875v6.75a2.811,2.811,0,0,1-.075.644l-2.25,9.563A2.813,2.813,0,0,1,26.438,36H11.813a2.813,2.813,0,0,1-2.275-1.158l-9-12.375a2.812,2.812,0,1,1,4.549-3.308l2.225,3.06V2.813a2.813,2.813,0,0,1,5.625,0V16.875H13.5V14.063a2.813,2.813,0,0,1,5.625,0v2.813h.563V15.188a2.813,2.813,0,0,1,5.625,0v1.688h.563a2.813,2.813,0,0,1,5.625,0ZM13.5,22.5h-.562v6.75H13.5Zm6.188,0h-.562v6.75h.563Zm6.188,0h-.562v6.75h.563Z" transform="translate(134.595 354.84) rotate(-21)" fill="#7fa53e"/>
  </g>
</svg>
