<svg xmlns="http://www.w3.org/2000/svg" width="214.049" height="178.749" viewBox="0 0 214.049 178.749">
  <g id="Group_1648" data-name="Group 1648" transform="translate(-80.449 -43.431)">
    <path id="Path_1060" data-name="Path 1060" d="M266.649,142.6l-13.7,8.388h0l-2.295,1.4V128.709l6-3.672,13.7-8.389-3.7-6.049h0l-13.574,8.313-2.418,1.481v-8.387h-7.093v18.386l-2.312-1.416L227.576,120.6l-3.7,6.049,19.7,12.061V162.4L227.584,152.6h0l-1.852,3.024-1.852,3.024,19.7,12.062v7.1h7.093v-17.1l19.7-12.061Z" fill="#ff9a00"/>
    <path id="Path_1061" data-name="Path 1061" d="M252.951,150.99h0l-2.295,1.4V128.709l6-3.672,13.7-8.389-3.7-6.049h0l-13.574,8.313-2.418,1.481v-8.387h-3.553v65.8h3.547v-17.1l19.7-12.061-3.7-6.049Z" fill="#d86100"/>
    <g id="Group_1642" data-name="Group 1642">
      <path id="Path_1066" data-name="Path 1066" d="M277.347,139.387c-.47-.141-11.571-3.376-16.554,3.577a7.35,7.35,0,0,0,5.934,11.6,7.248,7.248,0,0,0,.807-.044c8.506-.917,11.149-12.174,11.255-12.652l.433-1.912Z" fill="#7fa53e"/>
      <path id="Path_1067" data-name="Path 1067" d="M260.443,150.912a7.253,7.253,0,0,0,7.091,3.6c8.506-.917,11.149-12.174,11.255-12.652l.433-1.912Z" fill="#556f44"/>
    </g>
    <g id="Group_1643" data-name="Group 1643">
      <path id="Path_1062" data-name="Path 1062" d="M291.443,102.988c-.765-.318-18.843-7.681-28.419,3.128a12.407,12.407,0,0,0,7.949,20.5,12.9,12.9,0,0,0,1.362.066c14.442-.062,20.837-18.5,21.1-19.289l1.059-3.136Z" fill="#7fa53e"/>
      <path id="Path_1063" data-name="Path 1063" d="M261.054,119.4a12.2,12.2,0,0,0,9.924,7.218,12.636,12.636,0,0,0,1.362.067c14.442-.062,20.837-18.5,21.1-19.29l1.059-3.135Z" fill="#556f44"/>
    </g>
    <g id="Group_1644" data-name="Group 1644">
      <path id="Path_1064" data-name="Path 1064" d="M229.306,118.014c-5.093-7.107-16.438-3.8-16.919-3.655l-1.918.576.442,1.954c.111.49,2.812,12,11.5,12.932a7.832,7.832,0,0,0,.825.045,7.512,7.512,0,0,0,6.064-11.851Z" fill="#7fa53e"/>
      <path id="Path_1065" data-name="Path 1065" d="M210.469,114.935l.44,1.952c.111.489,2.812,11.994,11.5,12.931a7.552,7.552,0,0,0,.824.045,7.386,7.386,0,0,0,6.423-3.728Z" fill="#556f44"/>
    </g>
    <g id="Group_1645" data-name="Group 1645">
      <path id="Path_1066-2" data-name="Path 1066" d="M277.347,139.387c-.47-.141-11.571-3.376-16.554,3.577a7.35,7.35,0,0,0,5.934,11.6,7.248,7.248,0,0,0,.807-.044c8.506-.917,11.149-12.174,11.255-12.652l.433-1.912Z" fill="#7fa53e"/>
      <path id="Path_1067-2" data-name="Path 1067" d="M260.443,150.912a7.253,7.253,0,0,0,7.091,3.6c8.506-.917,11.149-12.174,11.255-12.652l.433-1.912Z" fill="#556f44"/>
    </g>
    <path id="Path_1068" data-name="Path 1068" d="M239.408,150.677c-8.412-11.74-27.152-6.277-27.946-6.038l-3.169.952.731,3.228c.183.808,4.645,19.812,19,21.36a12.907,12.907,0,0,0,1.362.074A12.408,12.408,0,0,0,239.4,150.678Z" fill="#7fa53e"/>
    <path id="Path_1069" data-name="Path 1069" d="M208.293,145.59l.727,3.228c.183.808,4.645,19.812,19,21.36a12.9,12.9,0,0,0,1.362.074,12.2,12.2,0,0,0,10.609-6.158Z" fill="#556f44"/>
    <path id="Path_1070" data-name="Path 1070" d="M266.085,174.263H227.519a5.678,5.678,0,0,0-5.679,5.678v7.917a4.723,4.723,0,0,0,4.722,4.722h0l5.281,29.6H262.37l5.282-29.6h0a4.723,4.723,0,0,0,4.723-4.722v-7.3A6.29,6.29,0,0,0,266.085,174.263Z" fill="#ae4b00"/>
    <path id="Path_1071" data-name="Path 1071" d="M266.16,174.263H247.11V222.18h15.263l5.282-29.6h0a4.723,4.723,0,0,0,4.722-4.722V180.48A6.216,6.216,0,0,0,266.16,174.263Z" fill="#803400"/>
    <path id="Path_1061-2" data-name="Path 1061" d="M138.9,114.093h0l-2.562,1.4V91.812l6.7-3.672,15.3-8.389L154.206,73.7h0l-15.155,8.313-2.7,1.481V75.109h-3.966v82.32h3.96v-33.62l21.994-12.061-4.131-6.049Z" fill="#763229"/>
    <path id="Path_1078" data-name="Path 1078" d="M178.65,100.924c2.09-13.793-3.775-27.517-13.579-31.778C161.93,55.6,152.113,46.452,141.978,49.5c-2.575-3.879-5.971-6.07-10.126-6.07L97.218,95.343,128.1,147.255h35.943c11.083,0,20.066-12.306,20.066-27.484a33.6,33.6,0,0,0-5.461-18.845Z" fill="#556f44"/>
    <path id="Path_1079" data-name="Path 1079" d="M119.435,50.616c-9.3-3.049-18.627,4.985-21.51,18.53-9,4.261-14.38,17.985-12.463,31.778-6.975,11.047-6.629,28.441.774,38.85,3.417,4.8,7.934,7.48,12.628,7.481h32.988V43.431C127.256,43.422,122.825,45.985,119.435,50.616Z" fill="#7fa53e"/>
    <path id="Path_1060-2" data-name="Path 1060" d="M154.152,105.7l-15.464,8.387h0l-2.59,1.405V91.81l6.772-3.672,15.464-8.388L154.158,73.7h0l-15.322,8.312L136.107,83.5,135.855,64.3h-8.006l.252,29.191-2.61-1.416L110.049,83.7l-4.177,6.048,22.237,12.06v23.684L110.058,115.7h0l-2.091,3.024-2.09,3.023,22.236,12.061v23.62h8.006V123.81l22.237-12.06Z" fill="#a33d2c"/>
    <g id="Group_1646" data-name="Group 1646">
      <path id="Path_1072" data-name="Path 1072" d="M171.631,176.51H92.94l39.345,45.669h29.271Z" fill="#a33d2c"/>
      <path id="Path_1073" data-name="Path 1073" d="M92.94,176.51l10.069,45.669H132.28V176.51Z" fill="#d14730"/>
      <path id="Path_1076" data-name="Path 1076" d="M170.146,156.362H132.285l-23.506,15.111,23.506,15.111h39.506a8.682,8.682,0,0,0,8.681-8.682V166.688A10.326,10.326,0,0,0,170.146,156.362Z" fill="#ff5233"/>
      <path id="Path_1077" data-name="Path 1077" d="M90.954,156.362h41.331v30.222H91.593a7.5,7.5,0,0,1-7.5-7.5v-15.87A6.856,6.856,0,0,1,90.954,156.362Z" fill="#ff6e2e"/>
    </g>
    <g id="Group_1647" data-name="Group 1647">
      <path id="Path_1066-3" data-name="Path 1066" d="M244.532,88.455c-.442.421-10.776,10.41-6.341,20.074a9.135,9.135,0,0,0,16.174.74,9.291,9.291,0,0,0,.45-.9c4.252-9.747-6.271-19.537-6.722-19.947l-1.8-1.646Z" fill="#7fa53e"/>
      <path id="Path_1067-3" data-name="Path 1067" d="M246.554,113.805a8.984,8.984,0,0,0,7.811-4.536,9.291,9.291,0,0,0,.45-.9c4.252-9.747-6.271-19.537-6.722-19.947l-1.8-1.646Z" fill="#556f44"/>
    </g>
  </g>
</svg>
