<svg xmlns="http://www.w3.org/2000/svg" width="178.06" height="179.549" viewBox="0 0 178.06 179.549">
  <g id="Group_1653" data-name="Group 1653" transform="translate(-317.035 -190.011)">
    <g id="watering-can">
      <path id="Path_1044" data-name="Path 1044" d="M430.967,368.026a.351.351,0,0,0,.06-.056C431.014,368.052,430.993,368.073,430.967,368.026Z" fill="#00c4eb"/>
      <path id="Path_1046" data-name="Path 1046" d="M430.967,368.026a.351.351,0,0,0,.06-.056C431.014,368.052,430.993,368.073,430.967,368.026Z" fill="#00c4eb"/>
      <path id="Path_1048" data-name="Path 1048" d="M336.252,247.75c3.742-28.622,13.059-44.447,38.892-44.447,26.451.024,34.456,17.5,38.168,43.69h-83.36a6.453,6.453,0,0,0-6.445,6.071h0l-2.3,39.1-.761,12.9-3.4,57.668a6.454,6.454,0,0,0,6.069,6.817c.126.008.251.011.376.011h103.3a6.452,6.452,0,0,0,6.456-6.45c0-.126,0-.252-.011-.378h0c-.257-4.363-6.361-108.051-6.605-112.2-2.17-36.417-20.91-60.516-51.487-60.516-34.933,0-51.608,28.118-51.639,63.051" fill="#7fa53e"/>
      <path id="Path_1049" data-name="Path 1049" d="M433.235,362.73c-.254-4.364-6.357-108.053-6.6-112.2-1.769-29.389-15.573-60.519-51.489-60.519V203.3c29.051,0,35.2,22.866,38.166,43.689H375.144V369.556h51.648a6.45,6.45,0,0,0,6.454-6.448c0-.127,0-.253-.011-.38Z" fill="#556f44"/>
      <path id="Path_1050" data-name="Path 1050" d="M380.456,294.644A32.986,32.986,0,0,0,375.118,289c-1.935.412-4.844,5-5.286,5.639-4.5,6.508-14.056,21.528-14.056,29.464a19.368,19.368,0,0,0,38.736,0C394.512,316.171,384.951,301.151,380.456,294.644Z" fill="#d3eef4"/>
      <path id="Path_1045" data-name="Path 1045" d="M479.681,255.738,433.5,364.2a5.377,5.377,0,0,1-1.324,1.883c.321-1.835-1.909-39.745-3.875-75.249l25.221-49.365,1.7-.739,24.386,13.3Z" fill="#556f44"/>
      <path id="Path_1051" data-name="Path 1051" d="M394.51,324.108a19.381,19.381,0,0,1-19.368,19.349l-.024-54.452c2.121-.009,4.133,3.89,5.335,5.637C384.953,301.151,394.51,316.171,394.51,324.108Z" fill="#ace0f3"/>
    </g>
    <path id="Path_1047" data-name="Path 1047" d="M493.429,241.525l-13.922,14.621-26.694-13.28.415-21a4.877,4.877,0,0,1,4.383-5.323,4.3,4.3,0,0,1,2.087.439l32.585,15.937a5.371,5.371,0,0,1,2.418,6.74,5,5,0,0,1-1.272,1.866Z" fill="#7fa53e"/>
    <path id="Path_1095" data-name="Path 1095" d="M375.118,262.867H322.931l.2-3.312h51.993" fill="#556f44"/>
    <path id="Path_1096" data-name="Path 1096" d="M375.118,259.555h52.048l.194,3.312H375.118" fill="#7fa53e"/>
    <path id="Path_1097" data-name="Path 1097" d="M375.118,271.1l-52.669-.038.18-3.067h52.489" fill="#556f44"/>
    <path id="Path_1098" data-name="Path 1098" d="M375.118,267.99h52.527l.2,3.1H375.118" fill="#7fa53e"/>
  </g>
</svg>
