<svg xmlns="http://www.w3.org/2000/svg" width="22.371" height="25.567" viewBox="0 0 22.371 25.567">
  <path id="Icon_awesome-book" data-name="Icon awesome-book" d="M22.371,17.977V1.2a1.2,1.2,0,0,0-1.2-1.2H4.794A4.8,4.8,0,0,0,0,4.794V20.773a4.8,4.8,0,0,0,4.794,4.794H21.173a1.2,1.2,0,0,0,1.2-1.2v-.8a1.208,1.208,0,0,0-.444-.934,11.136,11.136,0,0,1,0-3.73A1.19,1.19,0,0,0,22.371,17.977ZM6.392,6.691a.3.3,0,0,1,.3-.3H17.278a.3.3,0,0,1,.3.3v1a.3.3,0,0,1-.3.3H6.691a.3.3,0,0,1-.3-.3Zm0,3.2a.3.3,0,0,1,.3-.3H17.278a.3.3,0,0,1,.3.3v1a.3.3,0,0,1-.3.3H6.691a.3.3,0,0,1-.3-.3ZM19.045,22.371H4.794a1.6,1.6,0,0,1,0-3.2H19.045A17.977,17.977,0,0,0,19.045,22.371Z" fill="#fff"/>
</svg>
